<svg width="515" height="515" viewBox="0 0 515 515" fill="none" xmlns="http://www.w3.org/2000/svg">
<path d="M26.9199 41.0801C26.9199 35.5572 31.3971 31.0801 36.9199 31.0801H493.08C498.603 31.0801 503.08 35.5572 503.08 41.0801V473.76H26.9199V41.0801Z" fill="#F2F2F2"/>
<path d="M421.5 252C446.629 252 467 231.629 467 206.5C467 181.371 446.629 161 421.5 161C396.371 161 376 181.371 376 206.5C376 231.629 396.371 252 421.5 252Z" fill="white"/>
<path fill-rule="evenodd" clip-rule="evenodd" d="M412.857 225.286C412.936 225.286 413 225.222 413 225.143C413 225.064 412.936 225 412.857 225C412.778 225 412.714 225.064 412.714 225.143C412.714 225.222 412.778 225.286 412.857 225.286ZM409 225.143C409 223.013 410.727 221.286 412.857 221.286C414.987 221.286 416.714 223.013 416.714 225.143C416.714 227.273 414.987 229 412.857 229C410.727 229 409 227.273 409 225.143Z" fill="#010B31"/>
<path fill-rule="evenodd" clip-rule="evenodd" d="M433.286 225.286C433.365 225.286 433.429 225.222 433.429 225.143C433.429 225.064 433.365 225 433.286 225C433.207 225 433.143 225.064 433.143 225.143C433.143 225.222 433.207 225.286 433.286 225.286ZM429.429 225.143C429.429 223.013 431.156 221.286 433.286 221.286C435.416 221.286 437.143 223.013 437.143 225.143C437.143 227.273 435.416 229 433.286 229C431.156 229 429.429 227.273 429.429 225.143Z" fill="#010B31"/>
<path fill-rule="evenodd" clip-rule="evenodd" d="M396 188C396 186.895 396.895 186 398 186H405.429C406.382 186 407.203 186.673 407.39 187.607L408.926 195.286H438.857C439.453 195.286 440.018 195.552 440.398 196.011C440.778 196.47 440.933 197.075 440.822 197.66L437.85 213.242L437.847 213.257C437.586 214.572 436.871 215.754 435.826 216.595C434.787 217.431 433.488 217.878 432.154 217.857H414.137C412.804 217.878 411.505 217.431 410.466 216.595C409.421 215.754 408.706 214.573 408.444 213.258V213.257L405.343 197.762C405.33 197.708 405.319 197.654 405.31 197.598L403.789 190H398C396.895 190 396 189.105 396 188ZM409.727 199.286L412.367 212.478C412.446 212.872 412.66 213.227 412.974 213.479C413.287 213.731 413.679 213.865 414.082 213.858C414.094 213.857 414.107 213.857 414.12 213.857H432.171C432.184 213.857 432.197 213.857 432.21 213.858C432.612 213.865 433.004 213.731 433.318 213.479C433.629 213.228 433.843 212.876 433.923 212.483C433.923 212.481 433.924 212.479 433.924 212.478L436.44 199.286H409.727Z" fill="#010B31"/>
<path d="M389.5 223L403 237L364 251L389.5 223Z" fill="white"/>
<path d="M167.5 301C192.077 301 212 281.077 212 256.5C212 231.923 192.077 212 167.5 212C142.923 212 123 231.923 123 256.5C123 281.077 142.923 301 167.5 301Z" fill="white"/>
<path fill-rule="evenodd" clip-rule="evenodd" d="M152.513 243.872C153.482 242.903 154.796 242.359 156.167 242.359H167.25C168.355 242.359 169.25 243.254 169.25 244.359C169.25 245.463 168.355 246.359 167.25 246.359H156.167C155.857 246.359 155.561 246.482 155.342 246.7C155.123 246.919 155 247.216 155 247.525V269.692C155 270.001 155.123 270.298 155.342 270.517C155.561 270.736 155.857 270.859 156.167 270.859H178.333C178.643 270.859 178.939 270.736 179.158 270.517C179.377 270.298 179.5 270.001 179.5 269.692V258.609C179.5 257.504 180.395 256.609 181.5 256.609C182.605 256.609 183.5 257.504 183.5 258.609V269.692C183.5 271.062 182.956 272.376 181.987 273.345C181.018 274.314 179.704 274.859 178.333 274.859H156.167C154.796 274.859 153.482 274.314 152.513 273.345C151.544 272.376 151 271.062 151 269.692V247.525C151 246.155 151.544 244.841 152.513 243.872Z" fill="#010B31"/>
<path d="M179.125 241.984C179.755 241.354 180.609 241 181.5 241C182.391 241 183.245 241.354 183.875 241.984C184.505 242.614 184.859 243.468 184.859 244.359C184.859 245.25 184.505 246.104 183.875 246.734L168.833 261.775L162.5 263.359L164.083 257.025L179.125 241.984Z" fill="#010B31"/>
<path d="M194.216 275.281L174 289.989L202.483 312.005L194.216 275.281Z" fill="white"/>
<path d="M26.9199 41.0801C26.9199 35.5572 31.3971 31.0801 36.9199 31.0801H493.08C498.603 31.0801 503.08 35.5572 503.08 41.0801V64.5601H26.9199V41.0801Z" fill="#E5E5E5"/>
<path d="M50.4798 53.4C53.9039 53.4 56.6798 50.6242 56.6798 47.2C56.6798 43.7758 53.9039 41 50.4798 41C47.0556 41 44.2798 43.7758 44.2798 47.2C44.2798 50.6242 47.0556 53.4 50.4798 53.4Z" fill="#C4C4C4"/>
<path d="M72.8001 53.4C76.2243 53.4 79.0001 50.6242 79.0001 47.2C79.0001 43.7758 76.2243 41 72.8001 41C69.3759 41 66.6001 43.7758 66.6001 47.2C66.6001 50.6242 69.3759 53.4 72.8001 53.4Z" fill="#C4C4C4"/>
<path d="M95.1199 53.4C98.5441 53.4 101.32 50.6242 101.32 47.2C101.32 43.7758 98.5441 41 95.1199 41C91.6958 41 88.9199 43.7758 88.9199 47.2C88.9199 50.6242 91.6958 53.4 95.1199 53.4Z" fill="#C4C4C4"/>
<path d="M406.427 424.771H511.693V490.987H406.427V424.771Z" fill="#8BC34A"/>
<path d="M443.324 452.109C444.526 450.36 447.109 450.36 448.311 452.109L459.203 467.951C460.583 469.959 459.145 472.692 456.709 472.692H434.926C432.489 472.692 431.052 469.959 432.432 467.951L443.324 452.109Z" fill="#EEEEEE"/>
<path d="M464.5 443.071C465.701 441.309 468.299 441.309 469.501 443.071L486.471 467.961C487.841 469.97 486.402 472.692 483.971 472.692H450.029C447.598 472.692 446.159 469.97 447.529 467.961L464.5 443.071Z" fill="white"/>
<path d="M406.427 424.771L403.88 401.85L414.916 396.756L420.009 416.281L406.427 424.771Z" fill="#8BC34A"/>
<path d="M511.693 424.771L514.24 401.85L503.204 396.756L498.111 416.281L511.693 424.771Z" fill="#8BC34A"/>
<path d="M406.427 424.771H511.693L497.888 416.281H420.232L406.427 424.771Z" fill="#689F38"/>
<path d="M423.404 385.72H494.714L497.887 416.281H420.231L423.404 385.72Z" fill="#8BC34A"/>
<path d="M464.154 424.77C464.154 427.583 461.873 429.864 459.06 429.864C456.247 429.864 453.967 427.583 453.967 424.77C453.967 421.957 456.247 419.677 459.06 419.677C461.873 419.677 464.154 421.957 464.154 424.77Z" fill="#689F38"/>
<path d="M444.306 323.485L444.409 324.791C444.457 325.446 444.925 325.993 445.558 326.15L470.036 332.228C470.669 332.385 471.339 332.12 471.687 331.564L472.389 330.458L472.443 330.471C473.238 330.669 474.045 330.198 474.274 329.411L476.482 321.736C477.2 322.36 478.057 322.846 479.026 323.135C482.647 324.211 486.473 322.145 487.55 318.524L490.595 308.305C491.676 304.685 489.604 300.862 485.984 299.781C484.935 299.468 483.869 299.419 482.86 299.6L484.83 292.748C485.07 291.916 484.574 291.054 483.734 290.846L452.806 283.167C451.966 282.958 451.125 283.488 450.948 284.336L443.129 321.678C442.959 322.48 443.457 323.275 444.252 323.472L444.306 323.485ZM477.518 318.143L481.803 303.259C482.729 302.598 483.941 302.352 485.115 302.701C487.124 303.3 488.276 305.423 487.675 307.436L484.634 317.656C484.035 319.665 481.908 320.815 479.895 320.214C478.8 319.89 477.958 319.11 477.518 318.143Z" fill="#ED1C24"/>
<path d="M457.558 304.775C458.12 304.345 458.936 304.547 459.232 305.19L462.544 312.386C462.932 313.227 462.174 314.143 461.275 313.92L451.669 311.535C450.77 311.312 450.529 310.148 451.265 309.586L457.558 304.775Z" fill="#EEEEEE"/>
<path d="M466.636 302.502C467.21 302.025 468.082 302.241 468.365 302.932L473.362 315.11C473.706 315.947 472.952 316.819 472.074 316.601L456.964 312.85C456.086 312.632 455.828 311.508 456.523 310.929L466.636 302.502Z" fill="white"/>
<path d="M0.443514 314.205C0.248414 313.127 0.968615 312.384 2.05192 312.546L7.28291 313.327C8.36621 313.489 9.40261 314.494 9.59771 315.572C9.79271 316.649 9.07261 317.392 7.98921 317.23L2.75832 316.449C1.67492 316.287 0.638514 315.282 0.443514 314.205Z" fill="#DDDDDD"/>
<path d="M0.443514 314.205C0.248414 313.127 0.968615 312.384 2.05192 312.546L7.28291 313.327C8.36621 313.489 9.40261 314.494 9.59771 315.572C9.79271 316.649 9.07261 317.392 7.98921 317.23L2.75832 316.449C1.67492 316.287 0.638514 315.282 0.443514 314.205Z" fill="#DDDDDD"/>
<path d="M2.3263 324.614C2.1313 323.536 2.8514 322.793 3.9347 322.955L9.1657 323.736C10.2491 323.898 11.2854 324.903 11.4805 325.98C11.6755 327.058 10.9554 327.801 9.872 327.639L4.6411 326.858C3.5577 326.696 2.5214 325.691 2.3263 324.614Z" fill="#DDDDDD"/>
<path d="M4.21009 335.022C4.01509 333.944 4.73519 333.202 5.81849 333.363L11.0495 334.145C12.1328 334.306 13.1692 335.311 13.3643 336.389C13.5593 337.467 12.8392 338.21 11.7558 338.048L6.52489 337.267C5.44149 337.105 4.40509 336.1 4.21009 335.022Z" fill="#DDDDDD"/>
<path d="M6.09339 345.431C5.89839 344.353 6.61849 343.61 7.70179 343.772L12.9328 344.553C14.0161 344.715 15.0525 345.72 15.2476 346.798C15.4426 347.876 14.7225 348.618 13.6391 348.457L8.40819 347.675C7.32479 347.514 6.28839 346.509 6.09339 345.431Z" fill="#DDDDDD"/>
<path d="M7.97721 355.84C7.78211 354.762 8.50231 354.019 9.58561 354.181L14.8166 354.962C15.8999 355.124 16.9363 356.129 17.1313 357.207C17.3264 358.285 16.6063 359.027 15.5229 358.866L10.292 358.084C9.20861 357.923 8.17221 356.918 7.97721 355.84Z" fill="#DDDDDD"/>
<path d="M9.86099 366.249C9.66589 365.171 10.3861 364.428 11.4694 364.59L16.7004 365.371C17.7837 365.533 18.8201 366.538 19.0151 367.616C19.2102 368.694 18.4901 369.436 17.4067 369.274L12.1757 368.493C11.0924 368.332 10.056 367.327 9.86099 366.249Z" fill="#DDDDDD"/>
<path d="M11.7443 376.657C11.5492 375.58 12.2694 374.837 13.3527 374.999L18.5837 375.78C19.667 375.942 20.7034 376.947 20.8984 378.024C21.0935 379.102 20.3734 379.845 19.29 379.683L14.059 378.902C12.9757 378.74 11.9393 377.735 11.7443 376.657Z" fill="#DDDDDD"/>
<path d="M13.6276 387.066C13.4325 385.989 14.1527 385.246 15.236 385.408L20.467 386.189C21.5503 386.351 22.5867 387.355 22.7817 388.433C22.9768 389.511 22.2567 390.254 21.1733 390.092L15.9423 389.311C14.859 389.149 13.8226 388.144 13.6276 387.066Z" fill="#DDDDDD"/>
<path d="M4.60678 307.512C4.38478 306.285 5.19928 305.111 6.42618 304.889L90.0782 289.751L107.281 384.82L25.8509 399.555C23.3972 399.999 21.0482 398.37 20.6042 395.917L4.60678 307.512Z" fill="#30C2FF"/>
<path fill-rule="evenodd" clip-rule="evenodd" d="M41.0405 368.036C40.8385 366.92 41.5796 365.852 42.6957 365.65L75.8123 359.657C76.9284 359.455 77.9969 360.196 78.1988 361.312C78.4008 362.428 77.6598 363.497 76.5437 363.699L43.4271 369.691C42.311 369.893 41.2425 369.152 41.0405 368.036Z" fill="white"/>
<path d="M37.5051 334.786C38.3597 333.205 40.4594 332.825 41.8136 334.006L56.9681 347.218C58.74 348.763 57.9381 351.672 55.6249 352.09L30.907 356.563C28.5938 356.982 26.8235 354.538 27.9417 352.471L37.5051 334.786Z" fill="#EEEEEE"/>
<path d="M57.3816 319.858C58.2119 318.155 60.4567 317.749 61.831 319.053L86.07 342.046C87.736 343.627 86.9 346.43 84.64 346.839L45.7563 353.875C43.4966 354.284 41.7307 351.952 42.7372 349.888L57.3816 319.858Z" fill="white"/>
<path d="M22.7295 392.812C22.3965 390.972 23.6184 389.21 25.4587 388.877L105.397 374.412L106.81 382.218L26.8713 396.684C25.0311 397.017 23.2693 395.795 22.9363 393.954L22.7295 392.812Z" fill="#EEEEEE"/>
<path d="M0.442837 314.204C0.247837 313.126 0.920037 311.938 1.94434 311.55L6.88994 309.675C7.91424 309.287 8.90264 309.846 9.09774 310.924C9.29274 312.002 8.62054 313.19 7.59624 313.579L2.65064 315.453C1.62634 315.841 0.637937 315.282 0.442837 314.204Z" fill="#EEEEEE"/>
<path d="M2.32663 324.613C2.13163 323.535 2.80383 322.347 3.82813 321.958L8.77373 320.084C9.79803 319.696 10.7864 320.255 10.9815 321.333C11.1765 322.411 10.5043 323.599 9.48003 323.987L4.53443 325.862C3.51013 326.25 2.52163 325.691 2.32663 324.613Z" fill="#EEEEEE"/>
<path d="M4.20993 335.022C4.01493 333.944 4.68713 332.756 5.71143 332.368L10.657 330.493C11.6813 330.105 12.6697 330.664 12.8648 331.742C13.0598 332.82 12.3876 334.008 11.3633 334.397L6.41773 336.271C5.39343 336.659 4.40493 336.1 4.20993 335.022Z" fill="#EEEEEE"/>
<path d="M6.09323 345.431C5.89823 344.353 6.57043 343.165 7.59473 342.776L12.5403 340.902C13.5646 340.514 14.553 341.073 14.7481 342.151C14.9431 343.229 14.2709 344.417 13.2466 344.805L8.30103 346.68C7.27673 347.068 6.28823 346.509 6.09323 345.431Z" fill="#EEEEEE"/>
<path d="M7.97653 355.839C7.78153 354.761 8.45373 353.573 9.47803 353.185L14.4236 351.31C15.4479 350.922 16.4363 351.481 16.6314 352.559C16.8264 353.637 16.1542 354.825 15.1299 355.214L10.1843 357.088C9.16003 357.476 8.17153 356.917 7.97653 355.839Z" fill="#EEEEEE"/>
<path d="M9.86034 366.249C9.66524 365.171 10.3375 363.982 11.3617 363.594L16.3074 361.72C17.3317 361.331 18.3201 361.89 18.5152 362.968C18.7102 364.046 18.038 365.235 17.0137 365.623L12.0681 367.497C11.0438 367.885 10.0553 367.326 9.86034 366.249Z" fill="#EEEEEE"/>
<path d="M11.7436 376.657C11.5485 375.579 12.2208 374.391 13.245 374.002L18.1907 372.128C19.215 371.74 20.2034 372.299 20.3985 373.377C20.5935 374.455 19.9213 375.643 18.897 376.031L13.9514 377.906C12.9271 378.294 11.9386 377.735 11.7436 376.657Z" fill="#EEEEEE"/>
<path d="M13.6274 387.066C13.4323 385.988 14.1046 384.8 15.1288 384.412L20.0745 382.537C21.0988 382.149 22.0872 382.708 22.2823 383.786C22.4773 384.864 21.8051 386.052 20.7808 386.44L15.8352 388.315C14.8109 388.703 13.8224 388.144 13.6274 387.066Z" fill="#EEEEEE"/>
<path d="M424.761 0.474365L471.01 6.94876L467.669 30.8195L421.419 24.3451L424.761 0.474365Z" fill="#DFA700"/>
<path d="M474.181 7.39268C471.194 6.97458 468.207 6.55638 465.22 6.13828C463.792 15.9935 454.919 22.8825 445.399 21.5497C435.888 20.2183 429.513 11.1948 431.206 1.37668C428.836 1.04488 426.465 0.712979 424.094 0.381179C416.319 -0.707321 375.181 17.7919 375.181 17.7919L380.469 51.8493L399.239 48.4342L389.647 116.771L474.304 128.622L481.7 59.9776L498.773 68.4104L513.797 37.1964C513.797 37.1964 478.524 8.00068 474.181 7.39268Z" fill="#FFC107"/>
<path d="M424.685 60.3142C425.798 59.2626 427.599 59.5147 428.381 60.8316L437.128 75.5681C438.151 77.2912 436.726 79.432 434.742 79.154L413.538 76.186C411.553 75.9083 410.772 73.4584 412.228 72.0824L424.685 60.3142Z" fill="#EEEEEE"/>
<path d="M444.757 53.5284C445.883 52.3714 447.809 52.641 448.574 54.0628L462.068 79.1401C462.995 80.8631 461.571 82.9101 459.632 82.6391L426.276 77.9694C424.338 77.6981 423.53 75.3389 424.895 73.9362L444.757 53.5284Z" fill="white"/>
<path opacity="0.25" d="M316.642 497.381C272.086 497.381 321.771 510.557 300.046 514.178C278.422 517.799 235.475 493.962 227.73 499.393C219.986 504.824 229.742 513.675 192.83 514.58C155.917 515.485 138.216 510.557 164.668 497.281C191.12 484.004 233.061 449.506 273.293 459.865C313.624 470.225 384.733 497.381 316.642 497.381Z" fill="#A6A6A6"/>
<path d="M243.924 295.118L252.171 339.071C253.579 370.049 257.703 427.781 257.703 427.781C296.225 443.371 330.019 425.569 330.019 425.569C339.373 389.159 351.543 295.118 351.543 295.118C351.543 295.118 330.12 275.908 295.923 275.908C263.235 275.908 243.924 295.118 243.924 295.118Z" fill="#ED1C24"/>
<path d="M181.767 479.981C181.867 479.981 181.968 479.88 182.068 479.88C182.37 479.679 182.571 479.277 182.571 478.875C182.37 477.366 180.962 469.621 178.045 468.314C177.442 468.113 176.537 467.912 175.531 468.616C174.726 469.119 174.223 469.923 174.223 470.929C174.123 474.449 180.359 479.277 181.063 479.88C181.264 479.981 181.465 480.082 181.767 479.981ZM176.939 470.024C177.039 470.024 177.14 470.024 177.241 470.024C178.347 470.527 179.453 473.645 180.157 476.561C178.146 474.65 176.034 472.337 176.034 470.929C176.034 470.728 176.134 470.426 176.537 470.124C176.637 470.124 176.838 470.024 176.939 470.024Z" fill="#182C35"/>
<path d="M181.766 479.981C182.169 479.881 182.47 479.579 182.571 479.277C182.672 478.875 182.47 478.472 182.068 478.271C181.264 477.869 174.223 474.148 171.005 475.355C170.3 475.556 169.798 476.059 169.496 476.763C169.194 477.467 169.295 478.07 169.697 478.674C171.105 480.786 179.252 480.182 181.766 479.981C181.666 479.981 181.666 479.981 181.766 479.981ZM171.91 476.964C173.217 476.763 175.531 477.467 177.643 478.271C174.223 478.271 171.407 477.97 171.105 477.366C171.206 477.266 171.306 477.064 171.608 476.964C171.709 477.064 171.809 476.964 171.91 476.964Z" fill="#182C35"/>
<path d="M215.963 500.7L146.363 511.764C146.363 511.764 143.949 509.25 146.162 507.137L214.957 493.66C214.857 493.76 219.886 495.169 215.963 500.7Z" fill="white"/>
<path d="M211.236 479.076C209.727 481.087 206.609 484.306 202.184 485.01C195.747 486.016 190.215 479.277 190.215 479.277L188.404 477.969L185.588 474.55C185.588 474.55 182.168 474.449 181.565 478.975C181.565 478.975 146.463 502.309 145.558 503.617C144.653 504.924 146.161 507.137 146.161 507.137L214.957 493.66L212.342 477.467C212.342 477.567 211.94 478.171 211.236 479.076Z" fill="#FF4E5A"/>
<path d="M179.105 480.495L184.651 486.464L183.251 487.765L177.705 481.796L179.105 480.495Z" fill="#182C35"/>
<path d="M173.847 484.239L179.393 490.207L177.993 491.508L172.448 485.54L173.847 484.239Z" fill="#182C35"/>
<path d="M260.117 472.036C260.72 471.633 265.95 468.113 266.051 465.297C266.051 464.593 265.749 463.889 265.146 463.386C264.341 462.782 263.637 462.883 263.134 462.984C260.72 463.889 259.211 469.923 258.91 471.13C258.809 471.432 259.01 471.734 259.211 471.935C259.312 472.036 259.413 472.036 259.513 472.036C259.714 472.136 259.915 472.136 260.117 472.036ZM264.24 464.693C264.542 464.894 264.542 465.096 264.542 465.297C264.542 466.403 262.732 468.214 261.022 469.521C261.726 467.208 262.732 464.794 263.737 464.492C263.737 464.492 263.838 464.492 263.939 464.492C264.039 464.492 264.14 464.593 264.24 464.693Z" fill="#182C35"/>
<path d="M259.614 472.136C261.525 472.438 267.962 473.343 269.269 471.634C269.571 471.231 269.672 470.728 269.471 470.125C269.269 469.622 268.867 469.22 268.364 468.918C265.85 467.812 260.016 470.326 259.413 470.628C259.111 470.728 258.91 471.131 259.01 471.432C259.01 471.835 259.212 472.036 259.614 472.136C259.513 472.136 259.513 472.136 259.614 472.136ZM267.761 470.326C267.962 470.427 268.062 470.527 268.062 470.628C267.761 471.03 265.548 471.231 262.832 470.93C264.643 470.326 266.453 469.924 267.459 470.225C267.56 470.326 267.66 470.326 267.761 470.326Z" fill="#182C35"/>
<path d="M231.15 486.619L285.764 499.292C285.764 499.292 287.776 497.381 286.267 495.571L232.458 481.088C232.458 481.188 228.434 481.993 231.15 486.619Z" fill="white"/>
<path d="M236.179 469.722C237.285 471.332 239.599 474.148 243.018 474.952C248.047 476.159 252.875 471.13 252.875 471.13L254.384 470.225L256.797 467.711C256.797 467.711 259.513 467.811 259.714 471.432C259.714 471.432 286.267 491.95 286.87 492.956C287.574 494.062 286.267 495.672 286.267 495.672L232.457 481.188L235.374 468.515C235.374 468.415 235.676 469.018 236.179 469.722Z" fill="#FF4E5A"/>
<path d="M261.497 472.675L262.526 473.777L257.822 478.171L256.792 477.069L261.497 472.675Z" fill="#182C35"/>
<path d="M265.514 475.935L266.544 477.037L261.84 481.431L260.81 480.329L265.514 475.935Z" fill="#182C35"/>
<path d="M277.014 416.516C277.014 416.516 183.476 384.432 158.231 393.484C132.986 402.536 142.842 436.732 196.652 468.012L277.014 416.516Z" fill="url(#paint0_linear)"/>
<path d="M186.896 473.041L215.762 494.867L266.353 474.047C266.353 474.047 279.629 491.447 306.886 491.447C341.384 491.447 350.939 470.929 350.939 451.115C350.939 431.301 333.64 384.13 303.064 401.027C272.488 418.025 186.896 473.041 186.896 473.041Z" fill="url(#paint1_linear)"/>
<path d="M202.586 484.91C202.385 484.91 202.285 485.01 202.084 485.01C195.647 486.016 190.115 479.277 190.115 479.277L188.304 477.97L191.221 476.26L202.586 484.91Z" fill="#BC6964"/>
<path d="M299.242 189.812C280.132 189.309 272.387 204.296 265.347 216.566C258.306 228.837 244.225 251.769 256.697 264.442C269.169 277.115 272.387 274.198 272.387 274.198L269.169 267.157C269.169 267.157 278.221 278.321 301.153 278.321C324.085 278.321 328.711 268.163 328.711 268.163L325.996 276.109C325.996 276.109 346.916 268.364 347.821 251.366C348.626 234.268 332.734 211.839 326.398 202.787C320.061 193.634 317.245 190.315 299.242 189.812Z" fill="url(#paint2_linear)"/>
<path d="M351.543 295.118C351.543 295.118 362.003 302.561 364.92 314.228C368.138 326.498 384.835 373.77 384.734 378.9C384.633 384.029 382.823 385.437 376.285 389.058C369.748 392.679 320.565 404.346 315.838 405.553C311.11 406.76 301.757 408.168 297.734 406.76C293.71 405.453 288.782 403.441 288.782 403.441C288.782 403.441 283.15 405.855 282.345 407.967C281.44 410.079 281.54 412.091 279.328 412.091C279.328 412.091 278.322 409.073 279.73 405.151L277.92 412.091C277.92 412.091 276.009 412.191 275.506 409.576C275.103 406.961 275.304 401.932 275.304 401.932C275.304 401.932 271.483 410.582 266.454 408.872C266.454 408.872 269.773 401.128 271.181 399.418C272.589 397.607 279.227 392.78 279.227 392.78C279.227 392.78 272.187 393.182 270.074 394.288C267.962 395.395 264.643 399.82 261.525 398.714C261.525 398.714 264.14 393.685 267.661 391.372C271.181 388.958 282.244 387.751 284.859 388.153C287.575 388.555 300.55 394.489 308.495 394.087C316.441 393.685 338.468 379 344.201 375.882C349.934 372.765 358.584 367.836 358.584 367.836L344.301 333.841L351.543 295.118Z" fill="#FFB27D"/>
<path d="M279.73 405.252C279.73 405.252 282.446 399.418 286.67 399.317" stroke="#0D1333" stroke-miterlimit="10" stroke-linecap="round" stroke-linejoin="round"/>
<path d="M275.305 402.033C275.305 402.033 279.63 394.892 283.854 395.395" stroke="#0D1333" stroke-miterlimit="10" stroke-linecap="round" stroke-linejoin="round"/>
<path d="M344.301 333.841L351.543 295.118C351.543 295.118 362.003 302.561 364.92 314.228C366.932 322.073 374.475 344.2 379.604 360.494C375.28 362.807 367.636 366.126 358.081 366.73L344.301 333.841Z" fill="#FFB27D"/>
<path d="M351.543 295.118C351.543 295.118 369.949 307.992 382.421 348.123C382.421 348.123 365.222 363.813 348.727 361.198L343.296 339.071L351.543 295.118Z" fill="#ED1C24"/>
<path d="M243.924 295.118C243.924 295.118 225.519 307.992 213.047 348.123C213.047 348.123 230.246 363.813 246.741 361.198L252.172 339.071L243.924 295.118Z" fill="#ED1C24"/>
<path d="M284.859 282.747C284.859 282.646 284.859 282.646 284.859 282.747C284.859 282.646 284.859 282.646 284.859 282.747C284.859 282.646 288.58 270.074 288.882 259.714C299.945 264.039 312.719 256.294 314.932 253.881L314.429 282.143C314.328 282.344 310.305 294.313 295.922 293.71C283.35 293.207 284.356 283.954 284.859 282.747Z" fill="#FFB27D"/>
<path d="M289.385 216.667C283.35 216.466 278.12 220.891 277.215 226.825C276.913 228.434 276.712 229.742 276.611 230.144C275.706 232.96 272.588 248.248 284.456 257.3C285.865 258.407 287.373 259.211 288.882 259.815C299.946 264.14 312.719 256.395 314.932 253.981L316.34 215.057C316.34 214.957 316.34 214.756 316.34 214.655C316.139 211.839 312.92 210.33 310.506 211.839C307.489 213.549 300.247 216.968 289.385 216.667Z" fill="#FFB27D"/>
<path d="M309.092 236.422C310.5 240.646 315.126 243.06 319.351 241.652C323.575 240.244 325.989 235.617 324.581 231.393C323.173 227.168 318.546 224.755 314.322 226.163C309.997 227.571 307.684 232.197 309.092 236.422Z" fill="#FFB27D"/>
<path d="M288.883 259.614C288.782 263.235 288.279 267.057 287.676 270.476C293.107 270.979 307.389 271.08 314.933 259.413L315.033 253.78C312.72 256.194 299.946 263.939 288.883 259.614Z" fill="#FFB27D"/>
<path d="M212.142 411.789H322.778C326.7 411.789 330.02 408.57 330.02 404.547V334.343C330.02 330.421 326.801 327.102 322.778 327.102H212.142C208.219 327.102 204.9 330.32 204.9 334.343V404.547C204.9 408.57 208.118 411.789 212.142 411.789Z" fill="white"/>
<path d="M267.76 378.28C262.966 378.28 259.08 374.394 259.08 369.6C259.08 364.806 262.966 360.92 267.76 360.92C272.554 360.92 276.44 364.806 276.44 369.6C276.44 374.394 272.554 378.28 267.76 378.28Z" fill="#DDDDDD"/>
<path d="M225 97.288L301.299 92.229L304.334 138.009L228.035 143.067L225 97.288Z" fill="#8BC34A"/>
<path d="M252.069 112.56C252.864 111.165 254.76 111.039 255.732 112.317L264.532 123.892C265.648 125.359 264.731 127.517 262.941 127.636L246.945 128.697C245.156 128.815 243.962 126.797 244.874 125.195L252.069 112.56Z" fill="#EEEEEE"/>
<path d="M266.656 105.942C267.41 104.616 269.22 104.496 270.142 105.711L283.161 122.87C284.211 124.255 283.339 126.284 281.644 126.396L257.986 127.965C256.291 128.077 255.158 126.181 256.017 124.67L266.656 105.942Z" fill="white"/>
<path d="M52.7441 103.816L123.544 95.1411L135.111 189.541L64.311 198.216L52.7441 103.816Z" fill="#DDDDDD"/>
<path d="M49 100.072L119.8 91.397L131.367 185.797L60.5668 194.472L49 100.072Z" fill="white"/>
<path fill-rule="evenodd" clip-rule="evenodd" d="M62.9897 143.859C62.8946 143.083 63.4465 142.378 64.2223 142.282L87.2412 139.462C88.0162 139.367 88.7222 139.919 88.8172 140.695C88.9122 141.47 88.3612 142.176 87.5852 142.271L64.5665 145.092C63.7907 145.187 63.0848 144.635 62.9897 143.859Z" fill="#CCCCCC"/>
<path fill-rule="evenodd" clip-rule="evenodd" d="M60.5022 123.567C60.4389 123.05 60.8068 122.579 61.3239 122.516L72.0931 121.197C72.6103 121.133 73.081 121.501 73.1443 122.018C73.2077 122.535 72.8398 123.006 72.3226 123.069L61.5534 124.389C61.0362 124.452 60.5656 124.084 60.5022 123.567Z" fill="#CCCCCC"/>
<path fill-rule="evenodd" clip-rule="evenodd" d="M61.0193 127.781C60.956 127.264 61.3238 126.794 61.841 126.73L72.6102 125.411C73.1274 125.347 73.598 125.715 73.6614 126.232C73.7248 126.75 73.3569 127.22 72.8397 127.284L62.0705 128.603C61.5533 128.666 61.0827 128.299 61.0193 127.781Z" fill="#CCCCCC"/>
<path fill-rule="evenodd" clip-rule="evenodd" d="M63.8572 150.943C63.7938 150.426 64.1617 149.955 64.6789 149.892L113.208 143.946C113.726 143.882 114.196 144.25 114.26 144.768C114.323 145.285 113.955 145.755 113.438 145.819L64.9084 151.765C64.3912 151.828 63.9206 151.46 63.8572 150.943Z" fill="#CCCCCC"/>
<path fill-rule="evenodd" clip-rule="evenodd" d="M64.5506 156.607C64.4872 156.09 64.8551 155.62 65.3723 155.556L113.902 149.61C114.419 149.546 114.89 149.914 114.953 150.432C115.016 150.949 114.648 151.419 114.131 151.483L65.6018 157.429C65.0846 157.492 64.6139 157.125 64.5506 156.607Z" fill="#CCCCCC"/>
<path fill-rule="evenodd" clip-rule="evenodd" d="M65.2444 162.271C65.1811 161.754 65.5489 161.284 66.0661 161.22L114.596 155.274C115.113 155.211 115.583 155.578 115.647 156.096C115.71 156.613 115.342 157.083 114.825 157.147L66.2956 163.093C65.7784 163.156 65.3078 162.789 65.2444 162.271Z" fill="#CCCCCC"/>
<path fill-rule="evenodd" clip-rule="evenodd" d="M65.9392 167.935C65.8758 167.418 66.2437 166.948 66.7609 166.884L115.29 160.938C115.807 160.875 116.278 161.243 116.341 161.76C116.405 162.277 116.037 162.748 115.519 162.811L66.9904 168.757C66.4732 168.821 66.0025 168.453 65.9392 167.935Z" fill="#CCCCCC"/>
<path fill-rule="evenodd" clip-rule="evenodd" d="M66.6326 173.599C66.5692 173.082 66.9371 172.611 67.4543 172.548L115.984 166.602C116.501 166.538 116.972 166.906 117.035 167.424C117.098 167.941 116.73 168.411 116.213 168.475L67.6838 174.421C67.1666 174.484 66.696 174.116 66.6326 173.599Z" fill="#CCCCCC"/>
<path fill-rule="evenodd" clip-rule="evenodd" d="M67.3279 179.271C67.264 178.75 67.5656 178.284 68.0015 178.23L108.903 173.219C109.339 173.165 109.744 173.544 109.808 174.066C109.872 174.587 109.57 175.053 109.135 175.107L68.2328 180.118C67.7969 180.172 67.3918 179.792 67.3279 179.271Z" fill="#CCCCCC"/>
<path d="M63.3236 110.903C63.696 110.189 64.6692 110.069 65.2031 110.673L70.0392 116.14C70.6521 116.833 70.2366 117.93 69.3183 118.042L61.1093 119.048C60.191 119.16 59.5231 118.197 59.9506 117.376L63.3236 110.903Z" fill="#37A9E2"/>
<path d="M70.8866 106.519C71.258 105.799 72.2371 105.679 72.7712 106.288L80.3161 114.884C80.925 115.578 80.5085 116.67 79.5922 116.783L66.8011 118.35C65.8849 118.462 65.217 117.503 65.6404 116.682L70.8866 106.519Z" fill="#30C2FF"/>
<defs>
<linearGradient id="paint0_linear" x1="277.025" y1="429.966" x2="145.019" y2="429.966" gradientUnits="userSpaceOnUse">
<stop stop-color="#000028"/>
<stop offset="1" stop-color="#002D4F"/>
</linearGradient>
<linearGradient id="paint1_linear" x1="350.979" y1="446.159" x2="186.939" y2="446.159" gradientUnits="userSpaceOnUse">
<stop stop-color="#000028"/>
<stop offset="1" stop-color="#002D4F"/>
</linearGradient>
<linearGradient id="paint2_linear" x1="299.759" y1="278.351" x2="299.759" y2="189.812" gradientUnits="userSpaceOnUse">
<stop stop-color="#00192A"/>
<stop offset="0.2981" stop-color="#28233C"/>
<stop offset="0.5857" stop-color="#462B4A"/>
<stop offset="0.8295" stop-color="#593052"/>
<stop offset="1" stop-color="#603255"/>
</linearGradient>
</defs>
</svg>
