<svg width="22" height="30" viewBox="0 0 22 30" fill="none" xmlns="http://www.w3.org/2000/svg">
<path fill-rule="evenodd" clip-rule="evenodd" d="M5.86881 1.10084C5.97749 0.465032 6.53004 0 7.17682 0C7.99873 0 8.62293 0.737548 8.48483 1.54551L8.40485 2.01339L13.1312 2.01339L13.0512 1.54551C12.9131 0.737549 13.5373 0 14.3592 0C15.006 0 15.5586 0.465034 15.6672 1.10084L20.2624 27.9842C20.4006 28.7922 19.7763 29.5297 18.9544 29.5297C18.3077 29.5297 17.7551 29.0647 17.6464 28.4289L17.2037 25.8385H12.114V27.1808C12.114 27.9221 11.5114 28.5231 10.768 28.5231C10.0246 28.5231 9.42201 27.9221 9.42201 27.1808V25.8385H4.3324L3.88962 28.4289C3.78094 29.0647 3.22839 29.5297 2.58161 29.5297C1.7597 29.5297 1.1355 28.7922 1.2736 27.9842L5.86881 1.10084Z" fill="#0BA3E3"/>
<path d="M0 6.04025C0 4.92828 0.903946 4.02686 2.01902 4.02686H19.5172C20.6323 4.02686 21.5362 4.92828 21.5362 6.04025V21.8118C21.5362 22.9238 20.6323 23.8252 19.5172 23.8252H2.01902C0.903946 23.8252 0 22.9238 0 21.8118V6.04025Z" fill="#30C2FF"/>
</svg>
