<svg width="87" height="108" viewBox="0 0 87 108" fill="none" xmlns="http://www.w3.org/2000/svg">
<path d="M3.74414 12.8161L74.544 4.14111L86.111 98.5411L15.311 107.216L3.74414 12.8161Z" fill="#DDDDDD"/>
<path d="M0 9.07197L70.8 0.396973L82.367 94.797L11.5668 103.472L0 9.07197Z" fill="white"/>
<path fill-rule="evenodd" clip-rule="evenodd" d="M13.9897 52.859C13.8946 52.083 14.4465 51.378 15.2223 51.282L38.2412 48.4621C39.0162 48.3671 39.7222 48.9191 39.8172 49.6951C39.9122 50.4701 39.3612 51.176 38.5852 51.271L15.5665 54.092C14.7907 54.187 14.0848 53.635 13.9897 52.859Z" fill="#CCCCCC"/>
<path fill-rule="evenodd" clip-rule="evenodd" d="M11.5022 32.5669C11.4389 32.0499 11.8068 31.5789 12.3239 31.5159L23.0931 30.1969C23.6103 30.1329 24.081 30.5009 24.1443 31.0179C24.2077 31.5349 23.8398 32.0059 23.3226 32.0689L12.5534 33.3889C12.0362 33.4519 11.5656 33.0839 11.5022 32.5669Z" fill="#CCCCCC"/>
<path fill-rule="evenodd" clip-rule="evenodd" d="M12.0193 36.781C11.956 36.264 12.3238 35.794 12.841 35.73L23.6102 34.411C24.1274 34.347 24.598 34.715 24.6614 35.232C24.7248 35.75 24.3569 36.22 23.8397 36.284L13.0705 37.603C12.5533 37.666 12.0827 37.299 12.0193 36.781Z" fill="#CCCCCC"/>
<path fill-rule="evenodd" clip-rule="evenodd" d="M14.8572 59.9429C14.7938 59.4259 15.1617 58.9549 15.6789 58.8919L64.2078 52.946C64.7258 52.882 65.1958 53.25 65.2598 53.768C65.3228 54.285 64.9548 54.755 64.4378 54.819L15.9084 60.765C15.3912 60.828 14.9206 60.4599 14.8572 59.9429Z" fill="#CCCCCC"/>
<path fill-rule="evenodd" clip-rule="evenodd" d="M15.5506 65.607C15.4872 65.09 15.8551 64.62 16.3723 64.556L64.9018 58.61C65.4188 58.546 65.8898 58.914 65.9528 59.432C66.0158 59.949 65.6478 60.419 65.1308 60.483L16.6018 66.429C16.0846 66.492 15.6139 66.125 15.5506 65.607Z" fill="#CCCCCC"/>
<path fill-rule="evenodd" clip-rule="evenodd" d="M16.2444 71.2711C16.1811 70.7541 16.5489 70.2841 17.0661 70.2201L65.5958 64.2741C66.1128 64.2111 66.5828 64.5781 66.6468 65.0961C66.7098 65.6131 66.3418 66.0831 65.8248 66.1471L17.2956 72.0931C16.7784 72.1561 16.3078 71.7891 16.2444 71.2711Z" fill="#CCCCCC"/>
<path fill-rule="evenodd" clip-rule="evenodd" d="M16.9392 76.9349C16.8758 76.4179 17.2437 75.9479 17.7609 75.8839L66.2902 69.9379C66.8072 69.8749 67.2782 70.2429 67.3412 70.7599C67.4052 71.2769 67.0372 71.7479 66.5192 71.8109L17.9904 77.7569C17.4732 77.8209 17.0025 77.4529 16.9392 76.9349Z" fill="#CCCCCC"/>
<path fill-rule="evenodd" clip-rule="evenodd" d="M17.6326 82.599C17.5692 82.082 17.9371 81.611 18.4543 81.548L66.9838 75.602C67.5008 75.538 67.9718 75.9059 68.0348 76.4239C68.0978 76.9409 67.7298 77.411 67.2128 77.475L18.6838 83.421C18.1666 83.484 17.696 83.116 17.6326 82.599Z" fill="#CCCCCC"/>
<path fill-rule="evenodd" clip-rule="evenodd" d="M18.3279 88.271C18.264 87.75 18.5656 87.284 19.0015 87.23L59.9028 82.219C60.3388 82.165 60.7438 82.544 60.8078 83.066C60.8718 83.587 60.5698 84.053 60.1348 84.107L19.2328 89.118C18.7969 89.172 18.3918 88.792 18.3279 88.271Z" fill="#CCCCCC"/>
<path d="M14.3236 19.9031C14.696 19.1891 15.6692 19.0691 16.2031 19.6731L21.0392 25.1401C21.6521 25.8331 21.2366 26.9301 20.3183 27.0421L12.1093 28.0481C11.191 28.1601 10.5231 27.1971 10.9506 26.3761L14.3236 19.9031Z" fill="#37A9E2"/>
<path d="M21.8866 15.519C22.258 14.799 23.2371 14.679 23.7712 15.288L31.3161 23.884C31.925 24.578 31.5085 25.67 30.5922 25.783L17.8011 27.35C16.8849 27.462 16.217 26.503 16.6404 25.682L21.8866 15.519Z" fill="#30C2FF"/>
</svg>
