<svg width="478" height="443" viewBox="0 0 478 443" fill="none" xmlns="http://www.w3.org/2000/svg">
<path d="M0.919922 10.0801C0.919922 4.55718 5.39712 0.0800781 10.9199 0.0800781H467.08C472.603 0.0800781 477.08 4.55718 477.08 10.0801V442.76H0.919922V10.0801Z" fill="#F2F2F2"/>
<path d="M0.919922 10.0801C0.919922 4.55718 5.39712 0.0800781 10.9199 0.0800781H467.08C472.603 0.0800781 477.08 4.55718 477.08 10.0801V33.5601H0.919922V10.0801Z" fill="#E5E5E5"/>
<path d="M24.4798 22.4C27.9039 22.4 30.6798 19.6242 30.6798 16.2C30.6798 12.7758 27.9039 10 24.4798 10C21.0556 10 18.2798 12.7758 18.2798 16.2C18.2798 19.6242 21.0556 22.4 24.4798 22.4Z" fill="#C4C4C4"/>
<path d="M46.8001 22.4C50.2243 22.4 53.0001 19.6242 53.0001 16.2C53.0001 12.7758 50.2243 10 46.8001 10C43.3759 10 40.6001 12.7758 40.6001 16.2C40.6001 19.6242 43.3759 22.4 46.8001 22.4Z" fill="#C4C4C4"/>
<path d="M69.1199 22.4C72.5441 22.4 75.3199 19.6242 75.3199 16.2C75.3199 12.7758 72.5441 10 69.1199 10C65.6958 10 62.9199 12.7758 62.9199 16.2C62.9199 19.6242 65.6958 22.4 69.1199 22.4Z" fill="#C4C4C4"/>
</svg>
