<svg width="80" height="52" viewBox="0 0 80 52" fill="none" xmlns="http://www.w3.org/2000/svg">
<path d="M0 5.28801L76.299 0.229004L79.334 46.009L3.035 51.067L0 5.28801Z" fill="#8BC34A"/>
<path d="M27.0692 20.56C27.8642 19.165 29.7602 19.039 30.7322 20.317L39.5322 31.892C40.6482 33.359 39.7312 35.517 37.9412 35.636L21.9452 36.697C20.1562 36.815 18.9622 34.797 19.8742 33.195L27.0692 20.56Z" fill="#EEEEEE"/>
<path d="M41.6558 13.9421C42.4098 12.6161 44.2198 12.4961 45.1418 13.7111L58.1608 30.8701C59.2108 32.2551 58.3388 34.2841 56.6438 34.3961L32.9858 35.9651C31.2908 36.0771 30.1578 34.1811 31.0168 32.6701L41.6558 13.9421Z" fill="white"/>
</svg>
