<svg width="139" height="129" viewBox="0 0 139 129" fill="none" xmlns="http://www.w3.org/2000/svg">
<path d="M49.7609 0.474365L96.0099 6.94876L92.6689 30.8195L46.4189 24.3451L49.7609 0.474365Z" fill="#DFA700"/>
<path d="M99.1807 7.39268C96.1937 6.97458 93.2067 6.55638 90.2197 6.13828C88.7917 15.9935 79.9187 22.8825 70.3987 21.5497C60.8876 20.2183 54.5127 11.1948 56.2057 1.37668C53.8357 1.04488 51.4647 0.712979 49.0937 0.381179C41.3187 -0.707321 0.180664 17.7919 0.180664 17.7919L5.46866 51.8493L24.2387 48.4342L14.6467 116.771L99.3036 128.622L106.7 59.9776L123.773 68.4104L138.797 37.1964C138.797 37.1964 103.524 8.00068 99.1807 7.39268Z" fill="#FFC107"/>
<path d="M49.6847 60.3142C50.7977 59.2626 52.5987 59.5147 53.3807 60.8316L62.1277 75.5681C63.1507 77.2912 61.7257 79.432 59.7417 79.154L38.5377 76.186C36.5527 75.9083 35.7717 73.4584 37.2277 72.0824L49.6847 60.3142Z" fill="#EEEEEE"/>
<path d="M69.7566 53.5284C70.8826 52.3714 72.8086 52.641 73.5736 54.0628L87.0676 79.1401C87.9946 80.8631 86.5706 82.9101 84.6316 82.6391L51.2756 77.9694C49.3376 77.6981 48.5296 75.3389 49.8946 73.9362L69.7566 53.5284Z" fill="white"/>
</svg>
