<svg width="108" height="111" viewBox="0 0 108 111" fill="none" xmlns="http://www.w3.org/2000/svg">
<path d="M0.443514 25.2051C0.248414 24.1271 0.968615 23.3841 2.05192 23.5461L7.28291 24.3271C8.36621 24.4891 9.40261 25.4941 9.59771 26.5721C9.79271 27.6491 9.07261 28.3921 7.98921 28.2301L2.75832 27.4491C1.67492 27.2871 0.638514 26.2821 0.443514 25.2051Z" fill="#DDDDDD"/>
<path d="M0.443514 25.2051C0.248414 24.1271 0.968615 23.3841 2.05192 23.5461L7.28291 24.3271C8.36621 24.4891 9.40261 25.4941 9.59771 26.5721C9.79271 27.6491 9.07261 28.3921 7.98921 28.2301L2.75832 27.4491C1.67492 27.2871 0.638514 26.2821 0.443514 25.2051Z" fill="#DDDDDD"/>
<path d="M2.3263 35.6141C2.1313 34.5361 2.8514 33.793 3.9347 33.955L9.1657 34.736C10.2491 34.898 11.2854 35.9031 11.4805 36.9801C11.6755 38.0581 10.9554 38.8011 9.872 38.6391L4.6411 37.8581C3.5577 37.6961 2.5214 36.6911 2.3263 35.6141Z" fill="#DDDDDD"/>
<path d="M4.21009 46.022C4.01509 44.944 4.73519 44.202 5.81849 44.363L11.0495 45.145C12.1328 45.306 13.1692 46.311 13.3643 47.389C13.5593 48.467 12.8392 49.21 11.7558 49.048L6.52489 48.267C5.44149 48.105 4.40509 47.1 4.21009 46.022Z" fill="#DDDDDD"/>
<path d="M6.09339 56.4309C5.89839 55.3529 6.61849 54.6099 7.70179 54.7719L12.9328 55.5529C14.0161 55.7149 15.0525 56.7199 15.2476 57.7979C15.4426 58.8759 14.7225 59.6179 13.6391 59.4569L8.40819 58.6749C7.32479 58.5139 6.28839 57.5089 6.09339 56.4309Z" fill="#DDDDDD"/>
<path d="M7.97721 66.8399C7.78211 65.7619 8.50231 65.0189 9.58561 65.1809L14.8166 65.9619C15.8999 66.1239 16.9363 67.1289 17.1313 68.2069C17.3264 69.2849 16.6063 70.0269 15.5229 69.8659L10.292 69.0839C9.20861 68.9229 8.17221 67.9179 7.97721 66.8399Z" fill="#DDDDDD"/>
<path d="M9.86099 77.249C9.66589 76.171 10.3861 75.428 11.4694 75.59L16.7004 76.3711C17.7837 76.5331 18.8201 77.538 19.0151 78.616C19.2102 79.694 18.4901 80.436 17.4067 80.274L12.1757 79.4931C11.0924 79.3321 10.056 78.327 9.86099 77.249Z" fill="#DDDDDD"/>
<path d="M11.7443 87.657C11.5492 86.58 12.2694 85.837 13.3527 85.999L18.5837 86.78C19.667 86.942 20.7034 87.947 20.8984 89.024C21.0935 90.102 20.3734 90.845 19.29 90.683L14.059 89.902C12.9757 89.74 11.9393 88.735 11.7443 87.657Z" fill="#DDDDDD"/>
<path d="M13.6276 98.0659C13.4325 96.9889 14.1527 96.2459 15.236 96.4079L20.467 97.1889C21.5503 97.3509 22.5867 98.3549 22.7817 99.4329C22.9768 100.511 22.2567 101.254 21.1733 101.092L15.9423 100.311C14.859 100.149 13.8226 99.1439 13.6276 98.0659Z" fill="#DDDDDD"/>
<path d="M4.60678 18.512C4.38478 17.285 5.19928 16.111 6.42618 15.889L90.0782 0.750977L107.281 95.82L25.8509 110.555C23.3972 110.999 21.0482 109.37 20.6042 106.917L4.60678 18.512Z" fill="#30C2FF"/>
<path fill-rule="evenodd" clip-rule="evenodd" d="M41.0405 79.036C40.8385 77.92 41.5796 76.8519 42.6957 76.6499L75.8123 70.657C76.9284 70.455 77.9969 71.196 78.1988 72.312C78.4008 73.428 77.6598 74.497 76.5437 74.699L43.4271 80.691C42.311 80.893 41.2425 80.152 41.0405 79.036Z" fill="white"/>
<path d="M37.5051 45.786C38.3597 44.205 40.4594 43.825 41.8136 45.006L56.9681 58.2179C58.74 59.7629 57.9381 62.6719 55.6249 63.0899L30.907 67.5629C28.5938 67.9819 26.8235 65.538 27.9417 63.471L37.5051 45.786Z" fill="#EEEEEE"/>
<path d="M57.3816 30.8579C58.2119 29.1549 60.4567 28.7489 61.831 30.0529L86.07 53.0459C87.736 54.6269 86.9 57.4299 84.64 57.8389L45.7563 64.8749C43.4966 65.2839 41.7307 62.9519 42.7372 60.8879L57.3816 30.8579Z" fill="white"/>
<path d="M22.7295 103.812C22.3965 101.972 23.6184 100.21 25.4587 99.8771L105.397 85.4121L106.81 93.2181L26.8713 107.684C25.0311 108.017 23.2693 106.795 22.9363 104.954L22.7295 103.812Z" fill="#EEEEEE"/>
<path d="M0.442837 25.204C0.247837 24.126 0.920037 22.9379 1.94434 22.5499L6.88994 20.6749C7.91424 20.2869 8.90264 20.846 9.09774 21.924C9.29274 23.002 8.62054 24.19 7.59624 24.579L2.65064 26.453C1.62634 26.841 0.637937 26.282 0.442837 25.204Z" fill="#EEEEEE"/>
<path d="M2.32663 35.6131C2.13163 34.5351 2.80383 33.3471 3.82813 32.9581L8.77373 31.0841C9.79803 30.6961 10.7864 31.2551 10.9815 32.3331C11.1765 33.4111 10.5043 34.5991 9.48003 34.9871L4.53443 36.8621C3.51013 37.2501 2.52163 36.6911 2.32663 35.6131Z" fill="#EEEEEE"/>
<path d="M4.20993 46.0221C4.01493 44.9441 4.68713 43.7561 5.71143 43.3681L10.657 41.4931C11.6813 41.1051 12.6697 41.6641 12.8648 42.7421C13.0598 43.8201 12.3876 45.0081 11.3633 45.3971L6.41773 47.271C5.39343 47.659 4.40493 47.1001 4.20993 46.0221Z" fill="#EEEEEE"/>
<path d="M6.09323 56.431C5.89823 55.353 6.57043 54.165 7.59473 53.776L12.5403 51.902C13.5646 51.514 14.553 52.073 14.7481 53.151C14.9431 54.229 14.2709 55.417 13.2466 55.805L8.30103 57.68C7.27673 58.068 6.28823 57.509 6.09323 56.431Z" fill="#EEEEEE"/>
<path d="M7.97653 66.8389C7.78153 65.7609 8.45373 64.573 9.47803 64.185L14.4236 62.31C15.4479 61.922 16.4363 62.481 16.6314 63.559C16.8264 64.637 16.1542 65.8249 15.1299 66.2139L10.1843 68.088C9.16003 68.476 8.17153 67.9169 7.97653 66.8389Z" fill="#EEEEEE"/>
<path d="M9.86034 77.2489C9.66524 76.1709 10.3375 74.9819 11.3617 74.5939L16.3074 72.7199C17.3317 72.3309 18.3201 72.8899 18.5152 73.9679C18.7102 75.0459 18.038 76.2349 17.0137 76.6229L12.0681 78.4969C11.0438 78.8849 10.0553 78.3259 9.86034 77.2489Z" fill="#EEEEEE"/>
<path d="M11.7436 87.6571C11.5485 86.5791 12.2208 85.3911 13.245 85.0021L18.1907 83.1281C19.215 82.7401 20.2034 83.2991 20.3985 84.3771C20.5935 85.4551 19.9213 86.6431 18.897 87.0311L13.9514 88.9061C12.9271 89.2941 11.9386 88.7351 11.7436 87.6571Z" fill="#EEEEEE"/>
<path d="M13.6274 98.066C13.4323 96.988 14.1046 95.8 15.1288 95.412L20.0745 93.537C21.0988 93.149 22.0872 93.708 22.2823 94.786C22.4773 95.864 21.8051 97.052 20.7808 97.44L15.8352 99.315C14.8109 99.703 13.8224 99.144 13.6274 98.066Z" fill="#EEEEEE"/>
</svg>
