<svg width="89" height="101" viewBox="0 0 89 101" fill="none" xmlns="http://www.w3.org/2000/svg">
<path d="M44.5 89C69.0767 89 89 69.0767 89 44.5C89 19.9233 69.0767 0 44.5 0C19.9233 0 0 19.9233 0 44.5C0 69.0767 19.9233 89 44.5 89Z" fill="white"/>
<path fill-rule="evenodd" clip-rule="evenodd" d="M29.513 31.8719C30.482 30.9029 31.796 30.3589 33.167 30.3589H44.25C45.355 30.3589 46.25 31.2539 46.25 32.3589C46.25 33.4629 45.355 34.3589 44.25 34.3589H33.167C32.857 34.3589 32.561 34.4819 32.342 34.6999C32.123 34.9189 32 35.2159 32 35.5249V57.6919C32 58.0009 32.123 58.2979 32.342 58.5169C32.561 58.7359 32.857 58.8589 33.167 58.8589H55.333C55.643 58.8589 55.939 58.7359 56.158 58.5169C56.377 58.2979 56.5 58.0009 56.5 57.6919V46.6089C56.5 45.5039 57.395 44.6089 58.5 44.6089C59.605 44.6089 60.5 45.5039 60.5 46.6089V57.6919C60.5 59.0619 59.956 60.3759 58.987 61.3449C58.018 62.3139 56.704 62.8589 55.333 62.8589H33.167C31.796 62.8589 30.482 62.3139 29.513 61.3449C28.544 60.3759 28 59.0619 28 57.6919V35.5249C28 34.1549 28.544 32.8409 29.513 31.8719Z" fill="#010B31"/>
<path d="M56.125 29.984C56.755 29.354 57.609 29 58.5 29C59.391 29 60.245 29.354 60.875 29.984C61.505 30.614 61.859 31.468 61.859 32.359C61.859 33.25 61.505 34.104 60.875 34.734L45.833 49.775L39.5 51.359L41.083 45.025L56.125 29.984Z" fill="#010B31"/>
<path d="M71.216 63.281L51 77.989L79.483 100.005L71.216 63.281Z" fill="white"/>
</svg>
