<svg width="240" height="326" viewBox="0 0 240 326" fill="none" xmlns="http://www.w3.org/2000/svg">
<path opacity="0.25" d="M171.642 308.381C127.086 308.381 176.771 321.557 155.046 325.178C133.422 328.799 90.4748 304.962 82.7298 310.393C74.9858 315.824 84.7418 324.675 47.8298 325.58C10.9168 326.485 -6.7842 321.557 19.6678 308.281C46.1198 295.004 88.0608 260.506 128.293 270.865C168.624 281.225 239.733 308.381 171.642 308.381Z" fill="#A6A6A6"/>
<path d="M98.9238 106.118L107.171 150.071C108.579 181.049 112.703 238.781 112.703 238.781C151.225 254.371 185.019 236.569 185.019 236.569C194.373 200.159 206.543 106.118 206.543 106.118C206.543 106.118 185.12 86.908 150.923 86.908C118.235 86.908 98.9238 106.118 98.9238 106.118Z" fill="#ED1C24"/>
<path d="M36.7669 290.981C36.8669 290.981 36.9679 290.88 37.0679 290.88C37.3699 290.679 37.5709 290.277 37.5709 289.875C37.3699 288.366 35.9619 280.621 33.0449 279.314C32.4419 279.113 31.5369 278.912 30.5309 279.616C29.7259 280.119 29.2229 280.923 29.2229 281.929C29.1229 285.449 35.3589 290.277 36.0629 290.88C36.2639 290.981 36.4649 291.082 36.7669 290.981ZM31.9389 281.024C32.0389 281.024 32.1399 281.024 32.2409 281.024C33.3469 281.527 34.4529 284.645 35.1569 287.561C33.1459 285.65 31.0339 283.337 31.0339 281.929C31.0339 281.728 31.1339 281.426 31.5369 281.124C31.6369 281.124 31.8379 281.024 31.9389 281.024Z" fill="#182C35"/>
<path d="M36.7658 290.981C37.1688 290.881 37.4698 290.579 37.5708 290.277C37.6718 289.875 37.4698 289.472 37.0678 289.271C36.2638 288.869 29.2228 285.148 26.0048 286.355C25.2998 286.556 24.7978 287.059 24.4958 287.763C24.1938 288.467 24.2948 289.07 24.6968 289.674C26.1048 291.786 34.2518 291.182 36.7658 290.981C36.6658 290.981 36.6658 290.981 36.7658 290.981ZM26.9098 287.964C28.2168 287.763 30.5308 288.467 32.6428 289.271C29.2228 289.271 26.4068 288.97 26.1048 288.366C26.2058 288.266 26.3058 288.064 26.6078 287.964C26.7088 288.064 26.8088 287.964 26.9098 287.964Z" fill="#182C35"/>
<path d="M70.963 311.7L1.36305 322.764C1.36305 322.764 -1.05095 320.25 1.16205 318.137L69.957 304.66C69.857 304.76 74.886 306.169 70.963 311.7Z" fill="white"/>
<path d="M66.2358 290.076C64.7268 292.087 61.6088 295.306 57.1838 296.01C50.7468 297.016 45.2148 290.277 45.2148 290.277L43.4038 288.969L40.5878 285.55C40.5878 285.55 37.1678 285.449 36.5648 289.975C36.5648 289.975 1.46277 313.309 0.557772 314.617C-0.347228 315.924 1.16077 318.137 1.16077 318.137L69.9568 304.66L67.3418 288.467C67.3418 288.567 66.9398 289.171 66.2358 290.076Z" fill="#FF4E5A"/>
<path d="M34.1051 291.495L39.6511 297.464L38.2511 298.765L32.7051 292.796L34.1051 291.495Z" fill="#182C35"/>
<path d="M28.8472 295.239L34.3932 301.207L32.9932 302.508L27.4482 296.54L28.8472 295.239Z" fill="#182C35"/>
<path d="M115.117 283.036C115.72 282.633 120.95 279.113 121.051 276.297C121.051 275.593 120.749 274.889 120.146 274.386C119.341 273.782 118.637 273.883 118.134 273.984C115.72 274.889 114.211 280.923 113.91 282.13C113.809 282.432 114.01 282.734 114.211 282.935C114.312 283.036 114.413 283.036 114.513 283.036C114.714 283.136 114.915 283.136 115.117 283.036ZM119.24 275.693C119.542 275.894 119.542 276.096 119.542 276.297C119.542 277.403 117.732 279.214 116.022 280.521C116.726 278.208 117.732 275.794 118.737 275.492C118.737 275.492 118.838 275.492 118.939 275.492C119.039 275.492 119.14 275.593 119.24 275.693Z" fill="#182C35"/>
<path d="M114.614 283.136C116.525 283.438 122.962 284.343 124.269 282.634C124.571 282.231 124.672 281.728 124.471 281.125C124.269 280.622 123.867 280.22 123.364 279.918C120.85 278.812 115.016 281.326 114.413 281.628C114.111 281.728 113.91 282.131 114.01 282.432C114.01 282.835 114.212 283.036 114.614 283.136C114.513 283.136 114.513 283.136 114.614 283.136ZM122.761 281.326C122.962 281.427 123.062 281.527 123.062 281.628C122.761 282.03 120.548 282.231 117.832 281.93C119.643 281.326 121.453 280.924 122.459 281.225C122.56 281.326 122.66 281.326 122.761 281.326Z" fill="#182C35"/>
<path d="M86.15 297.619L140.764 310.292C140.764 310.292 142.776 308.381 141.267 306.571L87.458 292.088C87.458 292.188 83.434 292.993 86.15 297.619Z" fill="white"/>
<path d="M91.179 280.722C92.285 282.332 94.599 285.148 98.018 285.952C103.047 287.159 107.875 282.13 107.875 282.13L109.384 281.225L111.797 278.711C111.797 278.711 114.513 278.811 114.714 282.432C114.714 282.432 141.267 302.95 141.87 303.956C142.574 305.062 141.267 306.672 141.267 306.672L87.457 292.188L90.374 279.515C90.374 279.415 90.676 280.018 91.179 280.722Z" fill="#FF4E5A"/>
<path d="M116.497 283.675L117.526 284.777L112.822 289.171L111.792 288.069L116.497 283.675Z" fill="#182C35"/>
<path d="M120.514 286.935L121.544 288.037L116.84 292.431L115.81 291.329L120.514 286.935Z" fill="#182C35"/>
<path d="M132.014 227.516C132.014 227.516 38.4759 195.432 13.2309 204.484C-12.0141 213.536 -2.15813 247.732 51.6519 279.012L132.014 227.516Z" fill="url(#paint0_linear)"/>
<path d="M41.896 284.041L70.762 305.867L121.353 285.047C121.353 285.047 134.629 302.447 161.886 302.447C196.384 302.447 205.939 281.929 205.939 262.115C205.939 242.301 188.64 195.13 158.064 212.027C127.488 229.025 41.896 284.041 41.896 284.041Z" fill="url(#paint1_linear)"/>
<path d="M57.5862 295.91C57.3852 295.91 57.2852 296.01 57.0842 296.01C50.6472 297.016 45.1152 290.277 45.1152 290.277L43.3042 288.97L46.2212 287.26L57.5862 295.91Z" fill="#BC6964"/>
<path d="M154.242 0.81189C135.132 0.30889 127.387 15.2959 120.347 27.5659C113.306 39.8369 99.2252 62.7689 111.697 75.4419C124.169 88.1149 127.387 85.1979 127.387 85.1979L124.169 78.1569C124.169 78.1569 133.221 89.3209 156.153 89.3209C179.085 89.3209 183.711 79.1629 183.711 79.1629L180.996 87.1089C180.996 87.1089 201.916 79.3639 202.821 62.3659C203.626 45.2679 187.734 22.8389 181.398 13.7869C175.061 4.6339 172.245 1.31489 154.242 0.81189Z" fill="url(#paint2_linear)"/>
<path d="M206.543 106.118C206.543 106.118 217.003 113.561 219.92 125.228C223.138 137.498 239.835 184.77 239.734 189.9C239.633 195.029 237.823 196.437 231.285 200.058C224.748 203.679 175.565 215.346 170.838 216.553C166.11 217.76 156.757 219.168 152.734 217.76C148.71 216.453 143.782 214.441 143.782 214.441C143.782 214.441 138.15 216.855 137.345 218.967C136.44 221.079 136.54 223.091 134.328 223.091C134.328 223.091 133.322 220.073 134.73 216.151L132.92 223.091C132.92 223.091 131.009 223.191 130.506 220.576C130.103 217.961 130.304 212.932 130.304 212.932C130.304 212.932 126.483 221.582 121.454 219.872C121.454 219.872 124.773 212.128 126.181 210.418C127.589 208.607 134.227 203.78 134.227 203.78C134.227 203.78 127.187 204.182 125.074 205.288C122.962 206.395 119.643 210.82 116.525 209.714C116.525 209.714 119.14 204.685 122.661 202.372C126.181 199.958 137.244 198.751 139.859 199.153C142.575 199.555 155.55 205.489 163.495 205.087C171.441 204.685 193.468 190 199.201 186.882C204.934 183.765 213.584 178.836 213.584 178.836L199.301 144.841L206.543 106.118Z" fill="#FFB27D"/>
<path d="M134.73 216.252C134.73 216.252 137.446 210.418 141.67 210.317" stroke="#0D1333" stroke-miterlimit="10" stroke-linecap="round" stroke-linejoin="round"/>
<path d="M130.305 213.033C130.305 213.033 134.63 205.892 138.854 206.395" stroke="#0D1333" stroke-miterlimit="10" stroke-linecap="round" stroke-linejoin="round"/>
<path d="M199.301 144.841L206.543 106.118C206.543 106.118 217.003 113.561 219.92 125.228C221.932 133.073 229.475 155.2 234.604 171.494C230.28 173.807 222.636 177.126 213.081 177.73L199.301 144.841Z" fill="#FFB27D"/>
<path d="M206.543 106.118C206.543 106.118 224.949 118.992 237.421 159.123C237.421 159.123 220.222 174.813 203.727 172.198L198.296 150.071L206.543 106.118Z" fill="#ED1C24"/>
<path d="M98.9239 106.118C98.9239 106.118 80.5189 118.992 68.0469 159.123C68.0469 159.123 85.2459 174.813 101.741 172.198L107.172 150.071L98.9239 106.118Z" fill="#ED1C24"/>
<path d="M139.859 93.7471C139.859 93.6461 139.859 93.6461 139.859 93.7471C139.859 93.6461 139.859 93.6461 139.859 93.7471C139.859 93.6461 143.58 81.0741 143.882 70.7141C154.945 75.0391 167.719 67.2941 169.932 64.8811L169.429 93.1431C169.328 93.3441 165.305 105.313 150.922 104.71C138.35 104.207 139.356 94.9541 139.859 93.7471Z" fill="#FFB27D"/>
<path d="M144.385 27.6671C138.35 27.4661 133.12 31.8911 132.215 37.8251C131.913 39.4341 131.712 40.7421 131.611 41.1441C130.706 43.9601 127.588 59.2481 139.456 68.3001C140.865 69.4071 142.373 70.2111 143.882 70.8151C154.946 75.1401 167.719 67.3951 169.932 64.9811L171.34 26.0571C171.34 25.9571 171.34 25.7561 171.34 25.6551C171.139 22.8391 167.92 21.3301 165.506 22.8391C162.489 24.5491 155.247 27.9681 144.385 27.6671Z" fill="#FFB27D"/>
<path d="M164.092 47.422C165.5 51.646 170.126 54.06 174.351 52.652C178.575 51.244 180.989 46.617 179.581 42.393C178.173 38.168 173.546 35.755 169.322 37.163C164.997 38.571 162.684 43.197 164.092 47.422Z" fill="#FFB27D"/>
<path d="M143.883 70.614C143.782 74.235 143.279 78.057 142.676 81.476C148.107 81.979 162.389 82.08 169.933 70.413L170.033 64.78C167.72 67.194 154.946 74.939 143.883 70.614Z" fill="#FFB27D"/>
<path d="M67.1419 222.789H177.778C181.7 222.789 185.02 219.57 185.02 215.547V145.343C185.02 141.421 181.801 138.102 177.778 138.102H67.1419C63.2189 138.102 59.8999 141.32 59.8999 145.343V215.547C59.8999 219.57 63.1179 222.789 67.1419 222.789Z" fill="white"/>
<path d="M122.76 189.28C117.966 189.28 114.08 185.394 114.08 180.6C114.08 175.806 117.966 171.92 122.76 171.92C127.554 171.92 131.44 175.806 131.44 180.6C131.44 185.394 127.554 189.28 122.76 189.28Z" fill="#DDDDDD"/>
<defs>
<linearGradient id="paint0_linear" x1="132.025" y1="240.966" x2="0.0188832" y2="240.966" gradientUnits="userSpaceOnUse">
<stop stop-color="#000028"/>
<stop offset="1" stop-color="#002D4F"/>
</linearGradient>
<linearGradient id="paint1_linear" x1="205.979" y1="257.159" x2="41.939" y2="257.159" gradientUnits="userSpaceOnUse">
<stop stop-color="#000028"/>
<stop offset="1" stop-color="#002D4F"/>
</linearGradient>
<linearGradient id="paint2_linear" x1="154.759" y1="89.3509" x2="154.759" y2="0.811888" gradientUnits="userSpaceOnUse">
<stop stop-color="#00192A"/>
<stop offset="0.2981" stop-color="#28233C"/>
<stop offset="0.5857" stop-color="#462B4A"/>
<stop offset="0.8295" stop-color="#593052"/>
<stop offset="1" stop-color="#603255"/>
</linearGradient>
</defs>
</svg>
