<svg width="103" height="91" viewBox="0 0 103 91" fill="none" xmlns="http://www.w3.org/2000/svg">
<path d="M57.5 91C82.629 91 103 70.629 103 45.5C103 20.371 82.629 0 57.5 0C32.371 0 12 20.371 12 45.5C12 70.629 32.371 91 57.5 91Z" fill="white"/>
<path fill-rule="evenodd" clip-rule="evenodd" d="M48.857 64.2859C48.936 64.2859 49 64.2219 49 64.1429C49 64.0639 48.936 63.9999 48.857 63.9999C48.778 63.9999 48.714 64.0639 48.714 64.1429C48.714 64.2219 48.778 64.2859 48.857 64.2859ZM45 64.1429C45 62.0129 46.727 60.2859 48.857 60.2859C50.987 60.2859 52.714 62.0129 52.714 64.1429C52.714 66.2729 50.987 67.9999 48.857 67.9999C46.727 67.9999 45 66.2729 45 64.1429Z" fill="#010B31"/>
<path fill-rule="evenodd" clip-rule="evenodd" d="M69.2857 64.2859C69.3647 64.2859 69.4287 64.2219 69.4287 64.1429C69.4287 64.0639 69.3647 63.9999 69.2857 63.9999C69.2067 63.9999 69.1427 64.0639 69.1427 64.1429C69.1427 64.2219 69.2067 64.2859 69.2857 64.2859ZM65.4287 64.1429C65.4287 62.0129 67.1557 60.2859 69.2857 60.2859C71.4157 60.2859 73.1427 62.0129 73.1427 64.1429C73.1427 66.2729 71.4157 67.9999 69.2857 67.9999C67.1557 67.9999 65.4287 66.2729 65.4287 64.1429Z" fill="#010B31"/>
<path fill-rule="evenodd" clip-rule="evenodd" d="M32 27C32 25.895 32.895 25 34 25H41.429C42.382 25 43.203 25.673 43.39 26.607L44.926 34.286H74.857C75.453 34.286 76.018 34.552 76.398 35.011C76.778 35.47 76.933 36.075 76.822 36.66L73.85 52.242L73.847 52.257C73.586 53.572 72.871 54.754 71.826 55.595C70.787 56.431 69.488 56.878 68.154 56.857H50.137C48.804 56.878 47.505 56.431 46.466 55.595C45.421 54.754 44.706 53.573 44.444 52.258V52.257L41.343 36.762C41.33 36.708 41.319 36.654 41.31 36.598L39.789 29H34C32.895 29 32 28.105 32 27ZM45.727 38.286L48.367 51.478C48.446 51.872 48.66 52.227 48.974 52.479C49.287 52.731 49.679 52.865 50.082 52.858C50.094 52.857 50.107 52.857 50.12 52.857H68.171C68.184 52.857 68.197 52.857 68.21 52.858C68.612 52.865 69.004 52.731 69.318 52.479C69.629 52.228 69.843 51.876 69.923 51.483C69.923 51.481 69.924 51.479 69.924 51.478L72.44 38.286H45.727Z" fill="#010B31"/>
<path d="M25.5 62L39 76L0 90L25.5 62Z" fill="white"/>
</svg>
