<svg width="48" height="50" viewBox="0 0 48 50" fill="none" xmlns="http://www.w3.org/2000/svg">
<path d="M1.30596 40.4849L1.40896 41.7909C1.45696 42.4459 1.92497 42.9929 2.55797 43.1499L27.036 49.2279C27.669 49.3849 28.339 49.1199 28.687 48.5639L29.389 47.458L29.443 47.471C30.238 47.669 31.0449 47.198 31.2739 46.411L33.482 38.7359C34.2 39.3599 35.057 39.846 36.026 40.135C39.647 41.211 43.4729 39.1449 44.5499 35.5239L47.595 25.3049C48.676 21.6849 46.604 17.8619 42.984 16.781C41.935 16.468 40.8689 16.419 39.8599 16.6L41.8299 9.74793C42.07 8.91593 41.574 8.05395 40.734 7.84595L9.80596 0.166937C8.96596 -0.0420626 8.12496 0.487944 7.94796 1.33594L0.128958 38.678C-0.041042 39.48 0.456974 40.2749 1.25197 40.4719L1.30596 40.4849ZM34.518 35.143L38.803 20.2589C39.729 19.5979 40.941 19.3519 42.115 19.7009C44.124 20.2999 45.276 22.4229 44.6749 24.4359L41.634 34.656C41.035 36.665 38.908 37.8149 36.895 37.2139C35.7999 36.8899 34.958 36.11 34.518 35.143Z" fill="#ED1C24"/>
<path d="M14.5578 21.775C15.1198 21.345 15.9357 21.547 16.2317 22.19L19.5438 29.3859C19.9318 30.2269 19.1737 31.143 18.2747 30.92L8.66875 28.535C7.76975 28.312 7.52876 27.148 8.26476 26.586L14.5578 21.775Z" fill="#EEEEEE"/>
<path d="M23.636 19.502C24.21 19.025 25.082 19.241 25.365 19.932L30.3621 32.11C30.7061 32.947 29.9521 33.819 29.0741 33.601L13.964 29.85C13.086 29.632 12.8281 28.508 13.5231 27.929L23.636 19.502Z" fill="white"/>
</svg>
