<svg width="112" height="106" viewBox="0 0 112 106" fill="none" xmlns="http://www.w3.org/2000/svg">
<path d="M3.42676 39.771H108.693V105.987H3.42676V39.771Z" fill="#8BC34A"/>
<path d="M40.324 67.1091C41.526 65.3601 44.109 65.3601 45.311 67.1091L56.203 82.9511C57.583 84.9591 56.1451 87.6921 53.7091 87.6921H31.926C29.489 87.6921 28.052 84.9591 29.432 82.9511L40.324 67.1091Z" fill="#EEEEEE"/>
<path d="M61.5003 58.071C62.7013 56.309 65.2993 56.309 66.5013 58.071L83.4713 82.961C84.8413 84.97 83.4023 87.692 80.9713 87.692H47.0292C44.5982 87.692 43.1592 84.97 44.5292 82.961L61.5003 58.071Z" fill="white"/>
<path d="M3.42688 39.7711L0.879883 16.8501L11.9159 11.7561L17.0089 31.2811L3.42688 39.7711Z" fill="#8BC34A"/>
<path d="M108.693 39.7711L111.24 16.8501L100.204 11.7561L95.1113 31.2811L108.693 39.7711Z" fill="#8BC34A"/>
<path d="M3.42676 39.771H108.693L94.8878 31.281H17.2318L3.42676 39.771Z" fill="#689F38"/>
<path d="M20.4044 0.719971H91.7144L94.8875 31.281H17.2314L20.4044 0.719971Z" fill="#8BC34A"/>
<path d="M61.1538 39.77C61.1538 42.583 58.8728 44.864 56.0598 44.864C53.2468 44.864 50.9668 42.583 50.9668 39.77C50.9668 36.957 53.2468 34.677 56.0598 34.677C58.8728 34.677 61.1538 36.957 61.1538 39.77Z" fill="#689F38"/>
</svg>
