<svg width="496" height="435" viewBox="0 0 496 435" fill="none" xmlns="http://www.w3.org/2000/svg">
<path fill-rule="evenodd" clip-rule="evenodd" d="M472.421 54.6639L472.421 99.9195H439.932L439.932 54.6639H472.421Z" fill="#30C2FF"/>
<path d="M456.175 0.3573L496 54.664L416.351 54.664L456.175 0.3573Z" fill="#30C2FF"/>
<path fill-rule="evenodd" clip-rule="evenodd" d="M56.0692 389.555L56.0692 434.811H23.5801L23.5801 389.555H56.0692Z" fill="#DDDDDD"/>
<path d="M39.8244 335.248L79.6493 389.555H-0.000488281L39.8244 335.248Z" fill="#DDDDDD"/>
<path fill-rule="evenodd" clip-rule="evenodd" d="M56.0692 254.693L56.0692 299.949H23.5801L23.5801 254.693H56.0692Z" fill="#DDDDDD"/>
<path d="M39.8244 200.387L79.6493 254.693H-0.000488281L39.8244 200.387Z" fill="#DDDDDD"/>
<path fill-rule="evenodd" clip-rule="evenodd" d="M56.0692 119.832L56.0692 165.087H23.5801L23.5801 119.832H56.0692Z" fill="#DDDDDD"/>
<path d="M39.8244 65.5253L79.6493 119.832L-0.000488281 119.832L39.8244 65.5253Z" fill="#DDDDDD"/>
<path fill-rule="evenodd" clip-rule="evenodd" d="M153.821 389.555L153.821 434.811H121.332L121.332 389.555H153.821Z" fill="#30C2FF"/>
<path d="M137.576 335.248L177.401 389.555H97.7515L137.576 335.248Z" fill="#30C2FF"/>
<path fill-rule="evenodd" clip-rule="evenodd" d="M187.358 266.412C168.836 266.412 153.821 281.427 153.821 299.949H121.332C121.332 263.484 150.893 233.923 187.358 233.923H206.365V266.412H187.358Z" fill="#30C2FF"/>
<path d="M257.956 250.168L203.649 289.993L203.649 210.343L257.956 250.168Z" fill="#30C2FF"/>
<path fill-rule="evenodd" clip-rule="evenodd" d="M439.026 198.043C439.026 218.359 422.556 234.828 402.24 234.828L402.24 267.318C440.499 267.318 471.515 236.302 471.515 198.043L471.515 182.285L439.026 182.285L439.026 198.043Z" fill="#30C2FF"/>
<path d="M455.27 130.693L415.445 185L495.095 185L455.27 130.693Z" fill="#30C2FF"/>
<path fill-rule="evenodd" clip-rule="evenodd" d="M153.821 119.832L153.821 165.087H121.332L121.332 119.832H153.821Z" fill="#DDDDDD"/>
<path d="M137.576 65.5253L177.401 119.832L97.7515 119.832L137.576 65.5253Z" fill="#DDDDDD"/>
<path fill-rule="evenodd" clip-rule="evenodd" d="M251.574 389.555L251.574 434.811H219.084L219.084 389.555H251.574Z" fill="#DDDDDD"/>
<path d="M235.329 335.248L275.154 389.555H195.504L235.329 335.248Z" fill="#DDDDDD"/>
<path fill-rule="evenodd" clip-rule="evenodd" d="M326.745 266.412L281.49 266.412L281.49 233.923L326.745 233.923L326.745 266.412Z" fill="#30C2FF"/>
<path d="M381.051 250.168L326.744 289.993L326.744 210.343L381.051 250.168Z" fill="#30C2FF"/>
<path fill-rule="evenodd" clip-rule="evenodd" d="M251.574 119.832L251.574 165.087H219.084L219.084 119.832H251.574Z" fill="#DDDDDD"/>
<path d="M235.329 65.5253L275.154 119.832L195.504 119.832L235.329 65.5253Z" fill="#DDDDDD"/>
<path fill-rule="evenodd" clip-rule="evenodd" d="M349.8 389.555L349.8 434.811H317.311L317.311 389.555H349.8Z" fill="#DDDDDD"/>
<path d="M333.309 335.248L373.134 389.555H293.484L333.309 335.248Z" fill="#DDDDDD"/>
<path fill-rule="evenodd" clip-rule="evenodd" d="M349.325 119.832L349.325 165.087H316.836L316.836 119.832H349.325Z" fill="#DDDDDD"/>
<path d="M333.081 65.5253L372.906 119.832L293.256 119.832L333.081 65.5253Z" fill="#DDDDDD"/>
</svg>
