<svg width="509" height="387" viewBox="0 0 509 387" fill="none" xmlns="http://www.w3.org/2000/svg">
<path d="M26.3223 357.973H476.529C478.47 357.973 480.059 356.38 480.059 354.434V96.1267C480.059 82.3267 468.94 71.1805 455.175 71.1805H47.8532C34.0876 71.1805 22.9692 82.3267 22.9692 96.1267V354.434C22.7927 356.38 24.381 357.973 26.3223 357.973Z" fill="#34414D"/>
<path fill-rule="evenodd" clip-rule="evenodd" d="M43.8408 346.743H459.603V92.0712H43.8408V346.743Z" fill="#82D8FF"/>
<path d="M363.868 166.636C379.505 166.636 392.014 153.799 392.014 138.016H335.514C335.514 153.799 348.232 166.636 363.868 166.636Z" fill="#CB1B38"/>
<path d="M419.537 165.794C434.756 165.794 446.848 153.378 446.848 138.227H392.017C392.017 153.378 404.317 165.794 419.537 165.794Z" fill="#EDB900"/>
<path d="M474.157 165.794C489.376 165.794 501.468 153.378 501.468 138.227H446.637C446.845 153.378 459.146 165.794 474.157 165.794Z" fill="#CB1B38"/>
<path d="M29.875 166.636C45.5114 166.636 58.0205 153.799 58.0205 138.016H1.521C1.521 153.799 14.2386 166.636 29.875 166.636Z" fill="#CB1B38"/>
<path d="M86.3779 166.636C102.014 166.636 114.732 153.799 114.732 138.016H58.0239C58.0239 153.799 70.7415 166.636 86.3779 166.636Z" fill="#EDB900"/>
<path d="M142.038 165.794C157.257 165.794 169.35 153.378 169.35 138.227H114.518C114.518 153.378 126.819 165.794 142.038 165.794Z" fill="#CB1B38"/>
<path d="M307.373 166.636C323.009 166.636 335.518 153.799 335.518 138.016H279.019C279.019 153.799 291.737 166.636 307.373 166.636Z" fill="#EDB900"/>
<path d="M196.87 165.794C212.09 165.794 224.182 153.378 224.182 138.227H169.35C169.35 153.378 181.651 165.794 196.87 165.794Z" fill="#EDB900"/>
<path d="M251.704 165.794C266.923 165.794 279.015 153.378 279.015 138.227H224.184C224.184 153.378 236.484 165.794 251.704 165.794Z" fill="#CB1B38"/>
<path d="M501.885 138.858H1.52051L43.6345 92.14H459.771L501.885 138.858Z" fill="#ED1C24"/>
<path d="M58.0229 138.858L86.3769 92.14H130.993L114.522 138.858H58.0229Z" fill="#FFC107"/>
<path d="M169.35 138.858L178.94 92.14H223.556L224.181 138.858H169.35Z" fill="#FFC107"/>
<path d="M279.013 138.858L270.882 92.14H318.625L335.513 138.858H279.013Z" fill="#FFC107"/>
<path d="M392.015 138.858L368.04 92.14H413.906L446.847 138.858H392.015Z" fill="#FFC107"/>
<path d="M30.2033 386.28H479.351C495.764 386.28 509 373.011 509 356.557V355.319H0.55423V356.557C0.55423 373.011 13.7904 386.28 30.2033 386.28Z" fill="#F5F5F5"/>
<path d="M216.575 363.634H301.993C306.405 363.634 310.111 360.096 310.111 355.496H208.633C208.457 360.096 212.163 363.634 216.575 363.634Z" fill="#BABABA"/>
<path opacity="0.2" d="M26.6736 377.08H482.881C495.764 377.08 506.529 367.703 508.647 355.319H509V360.096C509 374.603 497.352 386.28 482.881 386.28H26.6736C12.2021 386.28 0.55423 374.603 0.55423 360.096V355.319H0.907196C3.02499 367.703 13.7904 377.08 26.6736 377.08Z" fill="#94C0FF"/>
<path d="M367.636 287.552L379.988 292.822C379.988 292.822 391.347 283.596 405.187 285.567C416.571 287.192 422.97 292.81 426.926 302.693L459.591 320.886L459.864 346.172L299.144 340.901L258.964 308.621L283.333 283.596L367.636 287.552Z" fill="#E3E3E3"/>
<path d="M258.796 270.909C259.813 273.563 260.904 276.241 262.07 278.945H262.095C262.417 278.92 262.74 278.908 263.062 278.895C263.422 278.883 263.781 278.883 264.141 278.883C264.6 278.883 265.059 278.908 265.518 278.933C265.666 278.945 265.815 278.957 265.964 278.97C266.262 278.995 266.572 279.019 266.857 279.057C267.043 279.081 267.217 279.106 267.39 279.131C267.651 279.168 267.923 279.205 268.184 279.243C268.37 279.28 268.556 279.317 268.742 279.354C268.99 279.404 269.238 279.453 269.486 279.503C269.684 279.54 269.87 279.602 270.056 279.639C270.292 279.701 270.528 279.751 270.763 279.825C270.962 279.875 271.148 279.937 271.334 279.999C271.557 280.073 271.793 280.135 272.016 280.21C272.202 280.272 272.4 280.346 272.586 280.408C272.81 280.483 273.02 280.569 273.244 280.656C273.43 280.731 273.628 280.805 273.814 280.892C274.025 280.979 274.236 281.066 274.446 281.165C274.633 281.252 274.819 281.338 275.005 281.425C275.203 281.524 275.414 281.624 275.612 281.723C275.798 281.822 275.972 281.909 276.158 282.008C276.356 282.12 276.555 282.231 276.741 282.343C276.914 282.442 277.088 282.554 277.274 282.653C277.472 282.777 277.658 282.888 277.844 283.013C278.018 283.124 278.179 283.236 278.353 283.347C278.539 283.471 278.725 283.608 278.911 283.732C279.072 283.843 279.233 283.967 279.395 284.091C279.581 284.228 279.754 284.377 279.94 284.513C280.089 284.637 280.25 284.761 280.399 284.885C280.585 285.034 280.759 285.195 280.932 285.344C281.081 285.468 281.218 285.592 281.354 285.728C281.54 285.89 281.714 286.063 281.887 286.237C282.011 286.361 282.148 286.485 282.272 286.621C282.458 286.807 282.631 286.993 282.805 287.192C282.892 287.291 282.991 287.378 283.078 287.477C283.103 287.502 283.127 287.527 283.152 287.551C283.289 287.7 283.413 287.849 283.537 287.998C283.673 288.159 283.809 288.32 283.946 288.481C284.07 288.63 284.181 288.779 284.305 288.94C284.442 289.114 284.566 289.275 284.69 289.449C284.801 289.598 284.913 289.759 285.025 289.92C285.149 290.094 285.273 290.267 285.397 290.453C285.508 290.614 285.608 290.776 285.707 290.937C285.818 291.123 285.942 291.309 286.054 291.495C286.153 291.656 286.24 291.817 286.339 291.991C286.451 292.177 286.55 292.375 286.662 292.561C286.711 292.648 286.761 292.747 286.81 292.834H379.993C379.993 292.834 380.067 288.767 377.451 285.059C377.339 284.947 377.228 284.823 377.141 284.724C377.066 284.649 376.992 284.575 376.917 284.488C376.694 284.265 376.471 284.054 376.235 283.843C376.211 283.819 376.173 283.781 376.149 283.757C375.876 283.521 375.603 283.285 375.33 283.062C375.268 283.013 375.219 282.975 375.157 282.926C374.933 282.752 374.71 282.591 374.487 282.43C374.388 282.355 374.276 282.293 374.177 282.219C373.991 282.095 373.805 281.971 373.606 281.847C373.482 281.772 373.358 281.698 373.234 281.624C373.061 281.512 372.875 281.413 372.701 281.314C372.565 281.239 372.428 281.165 372.304 281.103C372.131 281.016 371.957 280.917 371.771 280.83C371.635 280.768 371.486 280.693 371.349 280.631C371.176 280.557 371.002 280.47 370.816 280.396C370.667 280.334 370.518 280.272 370.37 280.222C370.196 280.148 370.01 280.086 369.836 280.024C369.688 279.974 369.526 279.912 369.378 279.863C369.192 279.801 369.018 279.751 368.832 279.701C368.683 279.652 368.522 279.615 368.361 279.565C368.175 279.515 367.989 279.478 367.803 279.429C367.592 279.391 367.406 279.354 367.22 279.305C367.071 279.28 366.91 279.243 366.761 279.218C366.612 279.193 366.463 279.168 366.302 279.143C366.091 279.106 365.88 279.094 365.67 279.069C365.533 279.057 365.397 279.032 365.26 279.019C364.988 278.995 364.715 278.982 364.442 278.97C364.367 278.97 364.281 278.957 364.206 278.957C363.859 278.945 363.499 278.945 363.152 278.957C362.768 278.97 362.383 278.982 361.999 279.019C360.027 279.181 358.043 279.664 356.121 280.495C355.501 280.768 354.905 281.066 354.323 281.388C354.943 278.995 354.806 276.403 353.752 273.96C353.603 273.625 353.442 273.302 353.268 272.98C353.219 272.881 353.157 272.794 353.095 272.695C352.971 272.484 352.834 272.273 352.698 272.062C352.624 271.963 352.562 271.851 352.487 271.752C352.351 271.554 352.202 271.368 352.053 271.194C351.979 271.107 351.904 271.008 351.83 270.921C351.644 270.711 351.445 270.5 351.235 270.301C351.197 270.264 351.16 270.214 351.111 270.177C350.863 269.942 350.615 269.718 350.342 269.508C350.255 269.446 350.181 269.384 350.094 269.322C349.908 269.173 349.709 269.036 349.511 268.912C349.412 268.838 349.3 268.776 349.201 268.714C349.002 268.59 348.816 268.478 348.606 268.379C348.506 268.33 348.407 268.268 348.296 268.218C348.035 268.094 347.775 267.97 347.502 267.858C347.452 267.846 347.415 267.821 347.365 267.796C347.055 267.672 346.733 267.561 346.423 267.474C346.324 267.449 346.225 267.424 346.125 267.399C345.89 267.337 345.667 267.275 345.431 267.238C345.319 267.213 345.195 267.189 345.084 267.176C344.848 267.139 344.625 267.102 344.389 267.077C344.278 267.065 344.178 267.052 344.067 267.04C343.757 267.015 343.434 267.003 343.112 267.003C343.087 267.003 343.062 267.003 343.05 267.003C342.703 267.003 342.368 267.027 342.021 267.065C341.921 267.077 341.81 267.089 341.711 267.102C341.462 267.139 341.227 267.164 340.979 267.213C340.855 267.238 340.743 267.263 340.619 267.288C340.384 267.337 340.136 267.399 339.9 267.474C339.788 267.511 339.689 267.536 339.578 267.573C339.243 267.685 338.895 267.809 338.561 267.945C338.523 267.957 338.499 267.97 338.461 267.995C338.213 268.106 337.978 268.218 337.755 268.342C337.68 268.379 337.593 268.429 337.519 268.466C337.333 268.565 337.159 268.664 336.986 268.776C336.911 268.826 336.837 268.875 336.762 268.925C336.576 269.049 336.403 269.173 336.217 269.309C336.167 269.346 336.118 269.384 336.056 269.421C335.832 269.594 335.622 269.768 335.423 269.954C335.361 270.004 335.312 270.053 335.262 270.115C335.113 270.264 334.952 270.413 334.815 270.562C334.753 270.624 334.691 270.698 334.629 270.76C334.493 270.909 334.357 271.07 334.233 271.219C334.183 271.281 334.133 271.343 334.084 271.405C333.91 271.628 333.749 271.851 333.588 272.087C333.575 272.112 333.563 272.137 333.538 272.161C333.402 272.372 333.265 272.583 333.141 272.806C333.104 272.881 333.067 272.943 333.03 273.017C332.93 273.203 332.831 273.389 332.744 273.575C332.707 273.65 332.67 273.712 332.645 273.786C332.534 274.034 332.422 274.282 332.335 274.542V274.555C332.236 274.815 332.149 275.088 332.075 275.361C332.05 275.423 332.038 275.497 332.025 275.559C331.963 275.77 331.914 275.981 331.876 276.192C331.852 276.328 331.814 276.465 331.79 276.614C326.519 272.422 319.178 271.194 312.568 274.046C311.266 274.604 310.075 275.299 308.971 276.093L306.727 275.783C306.429 274.753 306.07 273.736 305.635 272.72C305.474 272.347 305.301 271.975 305.127 271.616C305.077 271.504 305.015 271.393 304.953 271.281C304.829 271.033 304.693 270.785 304.569 270.537C304.495 270.413 304.433 270.289 304.358 270.165C304.222 269.929 304.085 269.706 303.949 269.47C303.875 269.346 303.8 269.235 303.738 269.123C303.577 268.875 303.428 268.64 303.267 268.404C303.205 268.317 303.143 268.23 303.081 268.131C302.858 267.809 302.622 267.486 302.386 267.176C302.362 267.151 302.349 267.127 302.324 267.102C302.101 266.817 301.878 266.544 301.642 266.259C301.568 266.159 301.481 266.072 301.407 265.986C301.258 265.812 301.097 265.638 300.948 265.465C300.563 265.043 300.167 264.634 299.745 264.237C299.671 264.163 299.584 264.088 299.509 264.026C299.137 263.679 298.753 263.344 298.356 263.009C298.269 262.947 298.195 262.873 298.108 262.811C297.662 262.451 297.215 262.117 296.756 261.794C296.645 261.72 296.545 261.645 296.434 261.571C295.975 261.261 295.516 260.963 295.045 260.678C295.02 260.666 294.995 260.641 294.958 260.628C294.462 260.343 293.954 260.07 293.445 259.81C293.333 259.748 293.209 259.698 293.098 259.636C292.589 259.388 292.069 259.153 291.548 258.942C291.473 258.917 291.399 258.88 291.324 258.855C290.841 258.669 290.357 258.495 289.861 258.322C289.762 258.285 289.65 258.247 289.551 258.223C289.005 258.049 288.46 257.9 287.914 257.764C287.803 257.739 287.691 257.714 287.579 257.689C287.058 257.565 286.538 257.466 286.004 257.379C285.942 257.367 285.893 257.354 285.831 257.342C285.26 257.255 284.69 257.193 284.107 257.131C283.983 257.119 283.859 257.106 283.735 257.106C283.152 257.069 282.569 257.032 281.986 257.032C281.949 257.032 281.9 257.032 281.862 257.032C281.304 257.032 280.746 257.057 280.188 257.082C280.064 257.094 279.953 257.094 279.829 257.106C279.246 257.156 278.675 257.218 278.092 257.292C277.993 257.305 277.882 257.33 277.782 257.342C277.249 257.429 276.716 257.528 276.183 257.64C276.096 257.664 276.009 257.677 275.922 257.689C275.339 257.826 274.769 257.987 274.198 258.161C274.074 258.198 273.95 258.235 273.826 258.285C273.244 258.471 272.661 258.681 272.078 258.917C266.857 249.641 262.82 185.516 260.253 168.626L246.463 179.764C246.847 182.74 248.801 244.904 258.796 270.909Z" fill="#E3E3E3"/>
<path d="M286.663 292.549C286.563 292.351 286.452 292.165 286.34 291.979C286.241 291.817 286.154 291.656 286.055 291.483C285.943 291.297 285.832 291.111 285.708 290.925C285.608 290.763 285.497 290.602 285.398 290.441C285.274 290.267 285.15 290.081 285.026 289.908C284.914 289.746 284.802 289.598 284.691 289.436C284.567 289.263 284.43 289.102 284.306 288.928C284.182 288.779 284.071 288.618 283.947 288.469C283.81 288.308 283.674 288.147 283.537 287.986C283.413 287.837 283.277 287.688 283.153 287.539C283.041 287.415 282.93 287.291 282.806 287.167C282.632 286.981 282.459 286.783 282.272 286.597C282.148 286.473 282.012 286.349 281.888 286.212C281.714 286.039 281.541 285.877 281.355 285.704C281.218 285.58 281.07 285.456 280.933 285.319C280.76 285.158 280.574 285.009 280.4 284.86C280.251 284.736 280.09 284.612 279.941 284.488C279.755 284.34 279.581 284.203 279.395 284.067C279.234 283.943 279.073 283.831 278.912 283.707C278.726 283.571 278.54 283.447 278.354 283.323C278.18 283.211 278.019 283.099 277.845 282.988C277.659 282.864 277.461 282.74 277.275 282.628C277.101 282.517 276.928 282.417 276.742 282.318C276.543 282.207 276.357 282.095 276.159 281.983C275.973 281.884 275.799 281.785 275.613 281.698C275.415 281.599 275.204 281.5 275.005 281.4C274.819 281.314 274.633 281.227 274.447 281.14C274.237 281.041 274.026 280.954 273.815 280.867C273.629 280.793 273.443 280.706 273.244 280.632C273.034 280.545 272.81 280.47 272.587 280.384C272.401 280.309 272.203 280.247 272.017 280.185C271.794 280.111 271.57 280.036 271.335 279.974C271.149 279.912 270.95 279.863 270.764 279.801C270.529 279.739 270.293 279.677 270.057 279.615C269.871 279.565 269.673 279.516 269.487 279.478C269.239 279.429 268.991 279.379 268.743 279.329C268.557 279.292 268.371 279.255 268.185 279.218C267.924 279.168 267.651 279.143 267.391 279.106C267.217 279.081 267.031 279.057 266.858 279.032C266.56 278.995 266.263 278.97 265.965 278.945C265.816 278.933 265.667 278.92 265.518 278.908C265.06 278.883 264.613 278.858 264.142 278.858C263.782 278.858 263.423 278.858 263.063 278.871C262.741 278.883 262.418 278.895 262.096 278.92H262.071C260.905 276.217 259.814 273.538 258.797 270.884C248.802 244.879 248.616 176.418 248.244 173.404L261.116 172.983L236.066 173.801C236.066 173.801 229.803 239.956 222.623 259.785C221.197 263.741 219.622 267.685 217.886 271.442C210.792 265.18 199.966 265.093 192.773 271.591C191.074 273.129 189.722 274.902 188.706 276.824C182.021 273.65 173.812 274.605 167.971 279.863C167.686 280.123 167.413 280.384 167.152 280.656C166.656 279.28 165.9 277.978 164.858 276.837C160.592 272.112 153.288 271.74 148.563 276.006C146.083 278.238 144.818 281.314 144.768 284.402C138.196 281.574 130.308 282.616 124.653 287.725C123.004 289.213 121.677 290.925 120.685 292.785H286.799C286.749 292.735 286.712 292.636 286.663 292.549Z" fill="white"/>
<path d="M200.705 278.4C200.469 278.325 200.234 278.226 199.986 278.152C199.738 278.09 199.514 278.015 199.266 277.99L198.907 277.928L198.547 277.904C198.311 277.879 198.063 277.904 197.828 277.904C197.592 277.916 197.357 277.953 197.121 277.978C196.885 278.04 196.662 278.065 196.439 278.139C196.216 278.214 195.992 278.276 195.782 278.375C195.558 278.449 195.36 278.561 195.162 278.672C194.963 278.772 194.777 278.92 194.579 279.032C194.405 279.181 194.219 279.305 194.058 279.466C193.897 279.627 193.723 279.764 193.587 279.95C193.512 280.037 193.438 280.111 193.363 280.198L193.177 280.471C193.041 280.644 192.954 280.855 192.83 281.041L192.793 281.115C192.805 281.103 192.781 281.14 192.805 281.091V281.103L192.793 281.128L192.768 281.165L192.694 281.339C192.644 281.45 192.57 281.574 192.557 281.661C192.495 281.86 192.421 282.046 192.371 282.256C192.309 282.467 192.284 282.678 192.235 282.889L191.974 284.154L190.858 283.372C190.635 283.211 190.412 283.038 190.176 282.889L189.817 282.678L189.643 282.566L189.593 282.542C189.556 282.517 189.643 282.566 189.631 282.566H189.618L189.593 282.554L189.494 282.504L189.073 282.306L188.862 282.207L188.676 282.145C188.428 282.058 188.205 281.959 187.919 281.897L187.522 281.785C187.386 281.748 187.25 281.736 187.113 281.711C186.977 281.686 186.84 281.661 186.704 281.649L186.295 281.612C186.022 281.574 185.749 281.599 185.476 281.599C185.203 281.599 184.931 281.649 184.658 281.674C184.385 281.723 184.112 281.773 183.852 281.835C183.591 281.922 183.318 281.971 183.07 282.083C182.81 282.182 182.55 282.269 182.314 282.405L181.942 282.591C181.818 282.653 181.706 282.74 181.595 282.802C181.359 282.938 181.136 283.1 180.913 283.273C180.677 283.422 180.491 283.633 180.28 283.807C180.069 283.993 179.896 284.203 179.697 284.402C179.524 284.613 179.362 284.848 179.176 285.059L178.705 285.654L178.098 285.332C177.924 285.233 177.75 285.121 177.564 285.047C177.391 284.947 177.192 284.885 177.006 284.811C176.808 284.749 176.622 284.687 176.423 284.637C176.225 284.588 176.027 284.563 175.816 284.526C175.605 284.513 175.406 284.476 175.196 284.489C174.985 284.476 174.786 284.489 174.576 284.501C174.365 284.526 174.154 284.538 173.956 284.588C173.745 284.625 173.546 284.687 173.335 284.737C173.137 284.811 172.926 284.873 172.74 284.96C172.542 285.034 172.356 285.133 172.157 285.233C172.058 285.282 171.971 285.344 171.872 285.394L171.699 285.443L171.649 285.419C171.661 285.406 171.624 285.443 171.661 285.406L171.686 285.456L171.674 285.505L171.612 285.567L171.066 286.002C170.892 286.15 170.768 286.312 170.607 286.46C170.533 286.535 170.446 286.609 170.384 286.696L170.186 286.969C170.062 287.155 169.888 287.328 169.801 287.527L169.466 288.135C169.528 287.911 169.59 287.688 169.652 287.452C169.702 287.217 169.826 287.018 169.913 286.795L170.062 286.473C170.111 286.361 170.186 286.262 170.26 286.163C170.396 285.964 170.52 285.741 170.682 285.555L171.153 285.047L171.215 284.985L171.24 284.947L171.252 284.935L171.215 284.885L171.202 284.823L171.215 284.811L171.388 284.737C171.488 284.662 171.587 284.588 171.686 284.526C171.885 284.377 172.095 284.241 172.306 284.117C172.517 283.98 172.753 283.881 172.976 283.769C173.211 283.67 173.435 283.571 173.683 283.496C173.918 283.41 174.166 283.36 174.414 283.298C174.662 283.261 174.91 283.199 175.171 283.186C175.419 283.162 175.679 283.162 175.94 283.162C176.2 283.174 176.448 283.186 176.709 283.236C176.969 283.261 177.217 283.323 177.465 283.385C177.713 283.459 177.961 283.521 178.209 283.62C178.457 283.707 178.693 283.819 178.928 283.931L177.85 284.203C178.036 283.918 178.222 283.633 178.42 283.36C178.643 283.1 178.842 282.827 179.077 282.579C179.325 282.343 179.548 282.083 179.821 281.884C180.082 281.661 180.342 281.45 180.64 281.264C180.789 281.177 180.925 281.078 181.074 280.991L181.52 280.756C181.818 280.582 182.14 280.471 182.45 280.334C182.76 280.198 183.095 280.123 183.43 280.024C183.765 279.95 184.1 279.875 184.435 279.813C184.769 279.776 185.117 279.727 185.464 279.727C185.811 279.727 186.146 279.702 186.493 279.751L187.002 279.801C187.175 279.826 187.336 279.863 187.51 279.888C187.684 279.925 187.845 279.95 188.018 279.987L188.515 280.136C188.837 280.223 189.172 280.371 189.507 280.495L189.755 280.595L189.953 280.706L190.362 280.929L190.462 280.979L190.548 281.029L190.598 281.066L190.809 281.202L191.23 281.487C191.503 281.686 191.751 281.922 192.024 282.132L190.648 282.616C190.722 282.343 190.772 282.058 190.871 281.798C190.958 281.537 191.069 281.264 191.206 280.991C191.268 280.843 191.33 280.756 191.392 280.644L191.491 280.483L191.553 280.371L191.615 280.285C191.776 280.061 191.925 279.813 192.111 279.615L192.384 279.305C192.483 279.206 192.582 279.106 192.681 279.02C192.88 278.821 193.103 278.66 193.314 278.486C193.537 278.313 193.785 278.189 194.008 278.04C194.256 277.928 194.492 277.792 194.752 277.693C195.013 277.594 195.261 277.494 195.521 277.445C195.658 277.407 195.782 277.37 195.918 277.345L196.315 277.283C196.575 277.234 196.848 277.246 197.109 277.234C197.369 277.246 197.642 277.246 197.902 277.283C198.163 277.321 198.423 277.358 198.671 277.432L199.043 277.532L199.403 277.668C199.651 277.742 199.874 277.891 200.097 278.003C200.296 278.102 200.494 278.263 200.705 278.4Z" fill="#E3E3E3"/>
<path d="M261.653 289.809L261.367 289.226C261.256 289.04 261.144 288.866 261.032 288.68C260.908 288.507 260.772 288.333 260.648 288.172C260.512 288.011 260.363 287.862 260.226 287.701C260.078 287.552 259.916 287.416 259.768 287.279C259.606 287.143 259.433 287.031 259.271 286.907L258.751 286.585L258.205 286.312L257.635 286.101L257.052 285.94C256.853 285.903 256.655 285.865 256.456 285.841C256.258 285.828 256.06 285.803 255.861 285.791C255.663 285.791 255.464 285.791 255.266 285.803C255.067 285.828 254.869 285.841 254.683 285.865L254.1 285.977L253.542 286.151L252.996 286.312L252.736 285.754L252.463 285.171C252.364 284.985 252.252 284.799 252.153 284.613C251.918 284.253 251.682 283.906 251.409 283.584L251.31 283.46V283.435L251.322 283.41C251.335 283.422 251.285 283.398 251.322 283.447L251.285 283.422L251.223 283.36L250.987 283.112C250.826 282.951 250.665 282.765 250.516 282.653L250.057 282.257L249.537 281.897C249.375 281.773 249.177 281.674 249.003 281.575C248.817 281.463 248.644 281.364 248.445 281.289C248.247 281.203 248.061 281.116 247.875 281.041L247.28 280.843C247.081 280.781 246.87 280.744 246.672 280.694C246.473 280.632 246.263 280.607 246.052 280.582C245.643 280.508 245.221 280.508 244.799 280.483C244.378 280.508 243.956 280.508 243.547 280.582L243.237 280.62L242.927 280.694C242.728 280.744 242.517 280.781 242.319 280.855L241.724 281.054C241.525 281.128 241.339 281.227 241.153 281.302C240.955 281.376 240.781 281.488 240.595 281.587C240.422 281.699 240.223 281.785 240.062 281.909L239.541 282.269L239.504 282.294H239.492C239.467 282.306 239.516 282.269 239.504 282.281L239.492 282.294L239.43 282.356L239.293 282.467L239.033 282.691C238.896 282.839 238.748 282.963 238.599 283.112C238.462 283.274 238.301 283.41 238.177 283.584C238.041 283.745 237.904 283.906 237.793 284.092C237.669 284.266 237.557 284.439 237.445 284.625C237.222 284.985 237.024 285.369 236.85 285.766L236.354 286.857L235.697 285.94L235.647 285.878L235.672 285.828L235.709 285.791C235.759 285.853 235.722 285.803 235.734 285.816L235.722 285.803H235.66L235.536 285.692L235.312 285.444C235.238 285.357 235.164 285.295 235.102 285.233L234.891 285.034C234.767 284.898 234.581 284.786 234.432 284.65C234.283 284.514 234.097 284.427 233.936 284.303C233.775 284.191 233.589 284.104 233.403 284.005C233.229 283.906 233.031 283.844 232.845 283.757C232.659 283.683 232.46 283.633 232.262 283.571C232.063 283.522 231.865 283.484 231.654 283.435C231.456 283.398 231.245 283.385 231.034 283.36C230.823 283.348 230.612 283.348 230.402 283.336L229.769 283.385L229.137 283.484L228.517 283.646L227.909 283.869L227.314 284.154L226.743 284.489L227.239 284.042L227.785 283.646C227.971 283.534 228.182 283.422 228.368 283.311C228.566 283.212 228.777 283.125 228.988 283.038C229.199 282.964 229.422 282.889 229.645 282.827L230.327 282.691C230.563 282.666 230.786 282.641 231.022 282.616C231.257 282.616 231.493 282.604 231.716 282.616C231.952 282.641 232.187 282.653 232.411 282.691C232.646 282.74 232.882 282.777 233.105 282.839C233.328 282.914 233.564 282.963 233.787 283.05C234.01 283.15 234.233 283.224 234.444 283.336C234.655 283.447 234.878 283.546 235.077 283.683C235.275 283.819 235.474 283.943 235.672 284.104L235.957 284.352C236.056 284.439 236.156 284.514 236.218 284.6L236.453 284.836L236.565 284.948L236.59 284.972L236.602 284.985L236.639 285.022L236.652 285.034L236.701 285.096L235.548 285.27C235.709 284.799 235.895 284.34 236.131 283.906C236.242 283.683 236.366 283.472 236.503 283.261C236.627 283.05 236.776 282.839 236.925 282.641C237.061 282.43 237.235 282.257 237.396 282.058C237.557 281.86 237.755 281.686 237.929 281.488L238.165 281.227L238.276 281.091L238.338 281.029L238.351 281.017L238.413 281.004L238.462 280.992L239.07 280.533C239.268 280.372 239.492 280.26 239.702 280.124C239.913 279.987 240.136 279.863 240.36 279.764C240.583 279.652 240.819 279.541 241.042 279.442L241.749 279.181C241.984 279.094 242.232 279.045 242.48 278.983L242.852 278.896L243.224 278.846C243.72 278.759 244.229 278.735 244.737 278.722C245.246 278.747 245.742 278.759 246.25 278.846C246.498 278.884 246.746 278.921 246.994 278.995C247.242 279.057 247.49 279.107 247.726 279.194L248.433 279.454C248.668 279.553 248.892 279.665 249.115 279.776C249.351 279.876 249.561 280.012 249.772 280.136C249.983 280.272 250.206 280.384 250.405 280.545L251 281.004L251.57 281.537C251.781 281.723 251.905 281.897 252.054 282.071L252.277 282.331L252.339 282.393L252.364 282.43L252.389 282.467L252.401 282.48L252.414 282.505L252.525 282.653C252.823 283.05 253.083 283.484 253.319 283.918C253.431 284.142 253.542 284.365 253.641 284.588L253.902 285.283L253.083 284.886L253.778 284.724C254.013 284.687 254.249 284.662 254.485 284.638C254.72 284.625 254.956 284.625 255.191 284.625C255.427 284.638 255.663 284.662 255.898 284.687C256.134 284.724 256.357 284.774 256.593 284.811C256.816 284.873 257.039 284.935 257.262 285.01C257.486 285.096 257.697 285.183 257.907 285.27C258.118 285.369 258.317 285.481 258.515 285.593L259.085 285.977C259.259 286.126 259.445 286.262 259.619 286.411C259.78 286.572 259.941 286.733 260.102 286.895C260.251 287.068 260.388 287.242 260.524 287.428C260.648 287.614 260.772 287.8 260.896 287.986C260.995 288.184 261.107 288.383 261.206 288.581C261.28 288.792 261.367 288.99 261.442 289.201L261.653 289.809Z" fill="#E3E3E3"/>
<path d="M131.828 291.508L120.691 292.834C120.691 292.834 83.0043 270.128 44.2258 306.798L44.2134 346.321H459.975C459.975 346.321 449.98 318.517 416.385 318.517C382.791 318.517 380.161 329.058 380.161 329.058C380.161 329.058 367.649 294.806 334.054 309.96C334.054 309.96 320.884 280.979 286.669 292.562C286.669 292.549 145.01 283.596 131.828 291.508Z" fill="white"/>
<path d="M129.57 307.642C129.235 307.555 128.913 307.418 128.59 307.344C128.255 307.282 127.945 307.195 127.611 307.158L127.115 307.096L126.619 307.084C126.296 307.059 125.961 307.108 125.639 307.121C125.316 307.146 124.994 307.208 124.684 307.257C124.374 307.344 124.064 307.394 123.766 307.518C123.469 307.629 123.171 307.728 122.886 307.865C122.588 307.976 122.328 308.15 122.055 308.299C121.782 308.448 121.546 308.646 121.286 308.82C121.063 309.031 120.802 309.204 120.604 309.44C120.393 309.663 120.17 309.874 119.996 310.109C119.909 310.233 119.798 310.345 119.711 310.469L119.463 310.854C119.289 311.102 119.178 311.387 119.029 311.647L118.979 311.746V311.759C118.992 311.746 118.955 311.796 118.992 311.722V311.734L118.979 311.759L118.955 311.821L118.855 312.056C118.793 312.205 118.707 312.391 118.682 312.515C118.607 312.776 118.521 313.036 118.459 313.334C118.384 313.619 118.359 313.917 118.31 314.202L118.012 315.938L116.462 314.933C116.14 314.723 115.829 314.499 115.507 314.313L115.011 314.041L114.763 313.904L114.701 313.867H114.689C114.639 313.842 114.751 313.892 114.738 313.892L114.726 313.879L114.689 313.867L114.54 313.805L113.957 313.557L113.672 313.433L113.411 313.359C113.076 313.259 112.754 313.123 112.37 313.061L111.824 312.937C111.638 312.9 111.452 312.887 111.266 312.863C111.08 312.838 110.894 312.8 110.708 312.8L110.15 312.776C109.778 312.738 109.406 312.788 109.034 312.8C108.662 312.813 108.29 312.9 107.918 312.949C107.558 313.024 107.186 313.111 106.826 313.21C106.479 313.346 106.107 313.433 105.772 313.594C105.425 313.743 105.078 313.879 104.755 314.065L104.259 314.338C104.098 314.437 103.949 314.549 103.788 314.648C103.466 314.847 103.18 315.082 102.883 315.318C102.573 315.541 102.325 315.826 102.052 316.087C101.779 316.347 101.556 316.657 101.295 316.93C101.06 317.228 100.861 317.55 100.626 317.86L100.018 318.703L99.1747 318.294C98.9267 318.17 98.6911 318.034 98.443 317.935C98.195 317.811 97.9346 317.736 97.6742 317.637C97.4013 317.563 97.1409 317.476 96.8681 317.439C96.5953 317.377 96.3224 317.352 96.0372 317.315C95.752 317.302 95.4791 317.277 95.1939 317.29C94.9087 317.29 94.6359 317.315 94.3506 317.339C94.0654 317.389 93.7802 317.414 93.5074 317.488C93.2221 317.538 92.9617 317.637 92.6765 317.724C92.4161 317.835 92.1308 317.922 91.8828 318.059C91.61 318.17 91.362 318.319 91.1015 318.468C90.9775 318.542 90.8535 318.629 90.7295 318.716L90.4939 318.79L90.4195 318.753C90.4319 318.741 90.3947 318.778 90.4443 318.728L90.4815 318.79L90.4567 318.852L90.3823 318.939L89.6754 319.559C89.4398 319.758 89.2786 319.993 89.0677 320.204C88.9685 320.316 88.8569 320.415 88.7701 320.539L88.5097 320.923C88.3485 321.184 88.1252 321.419 88.0136 321.705L87.5796 322.548C87.6416 322.238 87.716 321.928 87.7904 321.618C87.8524 321.295 88.0012 321.01 88.1128 320.712L88.2989 320.266C88.3733 320.117 88.4601 319.981 88.5469 319.832C88.7205 319.559 88.8817 319.237 89.0801 318.989L89.6878 318.269L89.7622 318.183L89.7994 318.133L89.8118 318.121L89.7622 318.059L89.7374 317.972L89.7622 317.947L89.9978 317.835C90.1218 317.724 90.2706 317.625 90.3947 317.525C90.6551 317.315 90.9279 317.116 91.2131 316.93C91.486 316.732 91.796 316.583 92.0936 316.422C92.4037 316.285 92.7137 316.124 93.0361 316.012C93.3585 315.876 93.6934 315.802 94.0158 315.702C94.3506 315.628 94.6855 315.541 95.0327 315.516C95.3799 315.467 95.7272 315.454 96.0744 315.442C96.4216 315.454 96.7689 315.454 97.1161 315.492C97.4633 315.516 97.8106 315.591 98.1578 315.653C98.4926 315.74 98.8399 315.814 99.1747 315.938C99.5095 316.037 99.832 316.186 100.167 316.322L98.7035 316.744C98.9391 316.36 99.1747 315.95 99.4351 315.566C99.7203 315.206 99.9684 314.809 100.291 314.475C100.613 314.14 100.911 313.78 101.258 313.483C101.605 313.173 101.953 312.862 102.337 312.602C102.523 312.466 102.709 312.329 102.907 312.205L103.515 311.858C103.912 311.61 104.334 311.424 104.755 311.226C105.177 311.027 105.623 310.903 106.07 310.742C106.516 310.618 106.975 310.506 107.421 310.407C107.88 310.345 108.339 310.246 108.81 310.233C109.282 310.221 109.741 310.171 110.212 310.209L110.906 310.246C111.142 310.258 111.365 310.308 111.601 310.333C111.836 310.37 112.06 310.395 112.295 310.444L112.977 310.618C113.424 310.717 113.883 310.891 114.341 311.064L114.689 311.188L114.974 311.325L115.544 311.598L115.681 311.672L115.805 311.734L115.879 311.784L116.177 311.97L116.772 312.329C117.156 312.59 117.516 312.887 117.876 313.16L116.028 313.904C116.115 313.532 116.164 313.148 116.288 312.776C116.388 312.416 116.536 312.032 116.698 311.66C116.772 311.461 116.859 311.337 116.933 311.176L117.057 310.953L117.144 310.804L117.218 310.68C117.429 310.357 117.615 310.035 117.863 309.737L118.223 309.291C118.347 309.142 118.483 309.018 118.607 308.882C118.868 308.596 119.153 308.361 119.438 308.125C119.723 307.877 120.058 307.704 120.356 307.493C120.691 307.319 121.001 307.133 121.348 306.984C121.695 306.848 122.03 306.699 122.39 306.6C122.563 306.55 122.737 306.488 122.923 306.451L123.469 306.352C123.828 306.277 124.2 306.277 124.548 306.24C124.907 306.24 125.267 306.228 125.626 306.265C125.986 306.302 126.333 306.339 126.681 306.426L127.201 306.55L127.697 306.724C128.032 306.823 128.355 306.997 128.665 307.133C128.987 307.27 129.272 307.456 129.57 307.642Z" fill="#E3E3E3"/>
<path d="M238.757 332.32L238.261 331.34C238.075 331.03 237.877 330.72 237.691 330.422C237.48 330.125 237.257 329.852 237.046 329.567C236.81 329.294 236.562 329.034 236.327 328.773C236.079 328.525 235.806 328.302 235.545 328.066C235.272 327.843 234.987 327.645 234.714 327.434L233.834 326.888L232.904 326.429L231.949 326.07L230.969 325.797C230.634 325.735 230.3 325.673 229.965 325.623C229.63 325.598 229.295 325.561 228.96 325.549C228.625 325.561 228.291 325.549 227.956 325.574C227.621 325.611 227.286 325.636 226.964 325.673L225.996 325.871L225.054 326.156L224.124 326.442L223.677 325.487L223.219 324.507C223.045 324.185 222.859 323.887 222.685 323.565C222.301 322.957 221.892 322.374 221.433 321.828L221.272 321.618L221.284 321.568L221.296 321.531C221.309 321.556 221.222 321.506 221.309 321.593L221.247 321.556L221.135 321.456L220.726 321.035C220.453 320.762 220.18 320.452 219.92 320.254L219.151 319.596L218.283 318.989C217.998 318.765 217.675 318.617 217.378 318.443C217.068 318.269 216.77 318.083 216.435 317.959C216.113 317.823 215.79 317.662 215.468 317.538L214.463 317.203C214.128 317.091 213.781 317.029 213.434 316.942C213.099 316.843 212.74 316.794 212.392 316.744C211.698 316.608 210.991 316.608 210.284 316.57C209.577 316.608 208.87 316.608 208.176 316.732L207.655 316.806L207.147 316.93C206.812 317.017 206.452 317.066 206.13 317.19L205.125 317.525C204.79 317.649 204.48 317.811 204.158 317.947C203.823 318.071 203.525 318.257 203.215 318.443C202.918 318.629 202.583 318.765 202.31 318.989L201.442 319.609L201.392 319.646L201.38 319.658H201.368C201.33 319.683 201.405 319.621 201.392 319.633L201.368 319.658L201.256 319.757L201.033 319.943L200.586 320.316C200.351 320.564 200.103 320.774 199.855 321.035C199.619 321.295 199.359 321.543 199.148 321.828C198.925 322.101 198.689 322.374 198.491 322.672C198.28 322.957 198.081 323.267 197.895 323.565C197.511 324.172 197.201 324.817 196.903 325.474L196.072 327.322L194.969 325.784L194.894 325.673L194.944 325.586L195.006 325.512C195.093 325.611 195.031 325.536 195.043 325.561L195.031 325.549L194.919 325.561L194.708 325.375L194.336 324.966C194.212 324.805 194.088 324.718 193.977 324.606L193.629 324.272C193.418 324.036 193.108 323.85 192.86 323.639C192.6 323.416 192.302 323.255 192.03 323.056C191.757 322.858 191.434 322.721 191.137 322.56C190.839 322.399 190.504 322.287 190.194 322.151C189.872 322.027 189.537 321.94 189.214 321.828C188.88 321.742 188.532 321.692 188.198 321.605C187.85 321.543 187.503 321.518 187.156 321.469C186.809 321.456 186.449 321.444 186.102 321.432L185.035 321.506L183.981 321.68L182.939 321.953L181.923 322.337L180.93 322.808L179.976 323.379L180.806 322.622L181.724 321.953C182.047 321.754 182.381 321.58 182.716 321.382C183.063 321.221 183.411 321.072 183.77 320.911C184.13 320.787 184.502 320.663 184.874 320.551L186.015 320.316C186.399 320.278 186.796 320.229 187.181 320.192C187.565 320.192 187.962 320.167 188.359 320.192C188.756 320.229 189.152 320.254 189.537 320.316C189.921 320.402 190.318 320.452 190.703 320.564C191.075 320.688 191.471 320.774 191.844 320.923C192.216 321.084 192.6 321.208 192.947 321.394C193.294 321.593 193.679 321.754 194.001 321.977C194.336 322.213 194.683 322.411 194.993 322.684L195.477 323.093C195.638 323.23 195.8 323.366 195.924 323.503L196.308 323.899L196.506 324.098L196.556 324.148L196.568 324.16L196.618 324.222L196.643 324.247L196.742 324.358L194.807 324.656C195.093 323.875 195.403 323.093 195.8 322.349C195.986 321.977 196.196 321.605 196.432 321.258C196.643 320.898 196.891 320.551 197.151 320.216C197.387 319.869 197.672 319.559 197.945 319.224C198.218 318.902 198.54 318.592 198.85 318.269L199.247 317.835L199.433 317.6L199.545 317.5L199.569 317.476L199.669 317.463L199.743 317.438L200.76 316.67C201.082 316.397 201.467 316.211 201.826 315.988C202.186 315.764 202.546 315.541 202.943 315.38C203.327 315.206 203.711 315.008 204.096 314.847L205.299 314.413C205.696 314.264 206.117 314.189 206.527 314.078L207.147 313.929L207.779 313.83C208.622 313.681 209.466 313.656 210.321 313.619C211.177 313.656 212.02 313.681 212.864 313.842C213.285 313.904 213.707 313.966 214.116 314.09C214.525 314.202 214.947 314.276 215.344 314.425L216.547 314.859C216.944 315.02 217.316 315.219 217.7 315.392C218.084 315.566 218.456 315.789 218.816 316.012C219.176 316.236 219.548 316.434 219.883 316.707L220.887 317.476L221.854 318.369C222.202 318.679 222.412 318.964 222.685 319.261L223.07 319.708L223.169 319.819L223.219 319.869L223.268 319.931L223.281 319.943L223.293 319.956L223.318 319.993L223.504 320.254C224.012 320.923 224.446 321.642 224.843 322.387C225.017 322.771 225.215 323.143 225.376 323.527L225.823 324.693L224.446 324.023L225.624 323.763C226.021 323.701 226.418 323.664 226.815 323.614C227.212 323.589 227.609 323.589 228.005 323.589C228.402 323.602 228.799 323.651 229.196 323.689C229.593 323.751 229.977 323.837 230.362 323.899C230.746 323.999 231.118 324.123 231.49 324.222C231.862 324.358 232.222 324.507 232.581 324.656C232.929 324.83 233.276 325.016 233.611 325.202L234.578 325.846C234.876 326.094 235.186 326.33 235.471 326.578C235.744 326.851 236.017 327.111 236.277 327.384C236.525 327.682 236.761 327.967 236.996 328.277C237.207 328.6 237.418 328.91 237.616 329.232C237.79 329.567 237.976 329.889 238.137 330.236C238.274 330.584 238.41 330.931 238.534 331.278L238.757 332.32Z" fill="#E3E3E3"/>
<path d="M348.339 332.543L347.843 331.564C347.657 331.254 347.459 330.943 347.273 330.646C347.062 330.348 346.839 330.075 346.628 329.79C346.392 329.517 346.144 329.257 345.908 328.996C345.66 328.748 345.388 328.525 345.127 328.29C344.854 328.066 344.569 327.868 344.296 327.657L343.416 327.111L342.486 326.653L341.531 326.293L340.551 326.02C340.216 325.958 339.881 325.896 339.547 325.847C339.212 325.822 338.877 325.785 338.542 325.772C338.207 325.785 337.872 325.772 337.538 325.797C337.203 325.847 336.868 325.859 336.546 325.896L335.578 326.095L334.636 326.38L333.706 326.665L333.259 325.71L332.8 324.73C332.627 324.408 332.441 324.11 332.267 323.788C331.883 323.18 331.473 322.597 331.015 322.052L330.853 321.841L330.866 321.791L330.878 321.754C330.891 321.779 330.804 321.729 330.891 321.816L330.829 321.779L330.717 321.68L330.308 321.258C330.035 320.985 329.762 320.675 329.502 320.477L328.733 319.82L327.865 319.212C327.579 318.989 327.257 318.84 326.959 318.666C326.649 318.493 326.352 318.307 326.017 318.183C325.694 318.046 325.372 317.885 325.05 317.761L324.045 317.426C323.71 317.315 323.363 317.253 323.016 317.166C322.681 317.067 322.321 317.017 321.974 316.967C321.28 316.831 320.573 316.831 319.866 316.794C319.159 316.831 318.452 316.831 317.758 316.955L317.237 317.029L316.728 317.153C316.394 317.24 316.034 317.29 315.712 317.414L314.707 317.749C314.372 317.873 314.062 318.034 313.74 318.17C313.405 318.294 313.107 318.48 312.797 318.666C312.5 318.852 312.165 318.989 311.892 319.212L311.024 319.82L310.974 319.857L310.962 319.869H310.949C310.912 319.894 310.987 319.832 310.974 319.844L310.949 319.869L310.838 319.968L310.615 320.154L310.168 320.526C309.933 320.775 309.685 320.985 309.437 321.246C309.201 321.506 308.94 321.754 308.73 322.039C308.506 322.312 308.271 322.585 308.085 322.883C307.874 323.168 307.676 323.478 307.49 323.776C307.105 324.383 306.795 325.028 306.497 325.685L305.667 327.533L304.563 325.995L304.488 325.884L304.538 325.797L304.6 325.723C304.687 325.822 304.625 325.747 304.637 325.772L304.625 325.76L304.513 325.772L304.302 325.586L303.93 325.177C303.806 325.016 303.682 324.929 303.571 324.817L303.224 324.482C303 324.247 302.703 324.061 302.455 323.85C302.194 323.627 301.897 323.466 301.624 323.267C301.351 323.069 301.029 322.932 300.731 322.771C300.433 322.61 300.098 322.498 299.788 322.362C299.466 322.238 299.131 322.151 298.809 322.039C298.474 321.953 298.127 321.903 297.792 321.816C297.445 321.754 297.097 321.729 296.75 321.68C296.403 321.655 296.043 321.655 295.696 321.643L294.63 321.717L293.575 321.891L292.534 322.163L291.517 322.548L290.525 323.019L289.57 323.59L290.401 322.833L291.318 322.163C291.641 321.965 291.976 321.791 292.31 321.593C292.658 321.432 293.005 321.283 293.365 321.122C293.724 320.998 294.096 320.874 294.468 320.762L295.609 320.526C295.994 320.489 296.39 320.44 296.775 320.402C297.159 320.402 297.556 320.378 297.953 320.402C298.35 320.44 298.747 320.464 299.131 320.526C299.516 320.613 299.912 320.663 300.297 320.775C300.669 320.899 301.066 320.985 301.438 321.134C301.81 321.295 302.194 321.419 302.541 321.605C302.889 321.804 303.273 321.965 303.596 322.188C303.93 322.424 304.278 322.622 304.588 322.895L305.071 323.304C305.233 323.441 305.394 323.577 305.518 323.714L305.902 324.11L306.101 324.309L306.15 324.358L306.163 324.371L306.212 324.433L306.237 324.458L306.336 324.569L304.402 324.867C304.687 324.086 304.997 323.304 305.394 322.56C305.58 322.188 305.791 321.816 306.026 321.469C306.237 321.109 306.485 320.762 306.745 320.427C306.981 320.08 307.266 319.77 307.539 319.435C307.812 319.113 308.134 318.803 308.444 318.48L308.841 318.046L309.027 317.811L309.139 317.711L309.164 317.687L309.263 317.674L309.337 317.649L310.354 316.893C310.677 316.62 311.061 316.434 311.421 316.198C311.78 315.975 312.14 315.752 312.537 315.591C312.921 315.417 313.306 315.219 313.69 315.058L314.893 314.624C315.29 314.475 315.712 314.4 316.121 314.289L316.741 314.14L317.373 314.041C318.217 313.892 319.06 313.867 319.916 313.83C320.759 313.867 321.614 313.892 322.458 314.053C322.879 314.115 323.301 314.177 323.71 314.301C324.12 314.413 324.541 314.487 324.938 314.636L326.141 315.07C326.538 315.231 326.91 315.43 327.294 315.603C327.679 315.777 328.051 316 328.41 316.223C328.77 316.446 329.142 316.645 329.477 316.918L330.481 317.687L331.449 318.579C331.796 318.89 332.007 319.175 332.279 319.472L332.664 319.919L332.763 320.03L332.813 320.08L332.862 320.142L332.875 320.154L332.887 320.167L332.912 320.204L333.098 320.464C333.606 321.134 334.04 321.853 334.437 322.597C334.611 322.982 334.809 323.354 334.971 323.738L335.417 324.904L334.04 324.234L335.219 323.974C335.615 323.912 336.012 323.875 336.409 323.825C336.806 323.8 337.203 323.8 337.6 323.8C337.996 323.813 338.393 323.862 338.79 323.9C339.187 323.962 339.571 324.048 339.956 324.11C340.34 324.21 340.712 324.321 341.084 324.433C341.456 324.569 341.816 324.718 342.176 324.867C342.523 325.041 342.87 325.227 343.205 325.413L344.172 326.057C344.47 326.305 344.78 326.541 345.065 326.789C345.338 327.062 345.611 327.322 345.871 327.595C346.119 327.893 346.355 328.178 346.59 328.488C346.801 328.81 347.012 329.12 347.211 329.431C347.384 329.765 347.57 330.088 347.731 330.435C347.868 330.782 348.004 331.129 348.128 331.477L348.339 332.543Z" fill="#E3E3E3"/>
<path d="M271.8 185.019C271.8 205.858 248.691 233.917 248.691 233.917C248.691 233.917 225.582 205.858 225.582 185.019C225.582 164.18 235.923 158.46 248.691 158.46C261.448 158.46 271.8 164.194 271.8 185.019Z" fill="#FF9800"/>
<path d="M264.254 179.165C264.254 192.45 248.691 210.337 248.691 210.337C248.691 210.337 233.128 192.45 233.128 179.165C233.128 165.881 240.093 162.233 248.691 162.233C257.278 162.246 264.254 165.881 264.254 179.165Z" fill="#FFC107"/>
<path d="M257.652 173.852C257.652 182.961 248.696 195.245 248.696 195.245C248.696 195.245 239.73 182.976 239.73 173.852C239.73 164.727 243.74 162.233 248.696 162.233C253.652 162.233 257.652 164.743 257.652 173.852Z" fill="#FFEB3B"/>
<path d="M229.824 121.242C229.824 121.242 198.166 137.859 198.166 173.874C198.166 173.874 200.139 177.832 203.304 173.08C206.469 168.327 209.237 155.271 229.427 155.271L229.824 121.242Z" fill="#CB1B38"/>
<path d="M267.177 121.242C267.177 121.242 298.836 137.859 298.836 173.874C298.836 173.874 296.851 177.832 293.686 173.08C290.521 168.327 287.754 155.271 267.563 155.271L267.177 121.242Z" fill="#CB1B38"/>
<path fill-rule="evenodd" clip-rule="evenodd" d="M229.559 158.921C219.824 143.583 213.361 116.765 213.361 86.2533C213.361 71.5101 215.842 57.6269 219.557 45.4862H277.447C281.152 57.6269 283.647 71.5101 283.647 86.2533C283.647 116.765 277.193 143.583 267.444 158.921H229.559Z" fill="white"/>
<path d="M229.825 158.976C229.339 158.976 228.942 159.373 228.942 159.858V163.993C228.942 164.479 229.339 164.876 229.825 164.876H248.504V158.965H229.825V158.976Z" fill="#34414D"/>
<path d="M267.159 158.977H248.501V164.887H267.159C267.644 164.887 268.052 164.49 268.052 164.005V159.87C268.041 159.374 267.644 158.977 267.159 158.977Z" fill="#34414D"/>
<path fill-rule="evenodd" clip-rule="evenodd" d="M248.425 93.2167C239.507 93.2167 232.289 85.989 232.289 77.0829C232.289 68.177 239.507 60.9493 248.425 60.9493C257.335 60.9493 264.556 68.177 264.556 77.0829C264.556 85.9983 257.327 93.2167 248.425 93.2167ZM248.425 66.0307C242.313 66.0307 237.37 70.9744 237.37 77.0829C237.37 83.1825 242.313 88.1353 248.425 88.1353C254.52 88.1353 259.475 83.1916 259.475 77.0829C259.475 70.9744 254.52 66.0307 248.425 66.0307Z" fill="#34414D"/>
<path d="M248.507 90.4872C241.16 90.4872 235.217 84.5436 235.217 77.1998C235.217 69.8557 241.16 63.9121 248.507 63.9121C255.835 63.9121 261.792 69.8557 261.792 77.1998C261.792 84.5327 255.835 90.4872 248.507 90.4872Z" fill="#00B9F2"/>
<path d="M219.561 45.4865C227.833 18.4151 242.19 0 248.506 0C254.831 0 269.174 18.4151 277.455 45.4865H219.561Z" fill="#CB1B38"/>
<path d="M249.717 131.1C249.617 131.067 249.518 131.056 249.408 131.056H249.386H248.493V175.473H249.485H249.507C250.059 175.473 250.522 175.021 250.522 174.47V173.124L250.555 171.173L253.356 135.456C253.378 131.817 250.334 131.255 249.717 131.1Z" fill="#CB1B38"/>
<path d="M247.504 131.045H247.482C247.372 131.045 247.273 131.067 247.173 131.089C246.997 131.134 246.798 131.211 246.6 131.321C245.497 131.685 243.623 132.644 243.623 135.478L246.423 171.228L246.457 173.036V174.382C246.457 174.801 246.721 175.165 247.085 175.319C247.228 175.396 247.394 175.44 247.57 175.44H247.592H248.485V131.023H247.504V131.045Z" fill="#CB1B38"/>
</svg>
