<svg width="411" height="304" viewBox="0 0 411 304" fill="none" xmlns="http://www.w3.org/2000/svg">
<path d="M21.5827 281.171H384.653C386.218 281.171 387.499 279.886 387.499 278.317V70.0044C387.499 58.8754 378.533 49.8866 367.431 49.8866H38.9463C27.845 49.8866 18.8785 58.8754 18.8785 70.0044V278.317C18.7362 279.886 20.0171 281.171 21.5827 281.171Z" fill="#34414D"/>
<path fill-rule="evenodd" clip-rule="evenodd" d="M35.71 272.114H371.002V66.7339H35.71V272.114Z" fill="#82D8FF"/>
<path d="M293.796 126.867C306.406 126.867 316.494 116.515 316.494 103.786H270.93C270.93 116.515 281.186 126.867 293.796 126.867Z" fill="#CB1B38"/>
<path d="M338.69 126.188C350.963 126.188 360.715 116.175 360.715 103.956H316.496C316.496 116.175 326.416 126.188 338.69 126.188Z" fill="#EDB900"/>
<path d="M382.739 126.188C395.013 126.188 404.765 116.175 404.765 103.956H360.546C360.714 116.175 370.634 126.188 382.739 126.188Z" fill="#CB1B38"/>
<path d="M24.4472 126.867C37.0572 126.867 47.1451 116.515 47.1451 103.786H1.58105C1.58105 116.515 11.8372 126.867 24.4472 126.867Z" fill="#CB1B38"/>
<path d="M70.0141 126.867C82.624 126.867 92.8802 116.515 92.8802 103.786H47.1479C47.1479 116.515 57.4041 126.867 70.0141 126.867Z" fill="#EDB900"/>
<path d="M114.902 126.188C127.175 126.188 136.927 116.175 136.927 103.956H92.708C92.708 116.175 102.628 126.188 114.902 126.188Z" fill="#CB1B38"/>
<path d="M248.236 126.867C260.846 126.867 270.934 116.515 270.934 103.786H225.37C225.37 116.515 235.626 126.867 248.236 126.867Z" fill="#EDB900"/>
<path d="M159.12 126.188C171.394 126.188 181.146 116.175 181.146 103.956H136.927C136.927 116.175 146.847 126.188 159.12 126.188Z" fill="#EDB900"/>
<path d="M203.341 126.188C215.615 126.188 225.366 116.175 225.366 103.956H181.147C181.147 116.175 191.067 126.188 203.341 126.188Z" fill="#CB1B38"/>
<path d="M405.101 104.465H1.58105L35.5439 66.7894H371.138L405.101 104.465Z" fill="#ED1C24"/>
<path d="M47.1479 104.465L70.0141 66.7894H105.995L92.712 104.465H47.1479Z" fill="#FFC107"/>
<path d="M136.927 104.465L144.661 66.7894H180.642L181.146 104.465H136.927Z" fill="#FFC107"/>
<path d="M225.365 104.465L218.808 66.7894H257.311L270.929 104.465H225.365Z" fill="#FFC107"/>
<path d="M316.496 104.465L297.161 66.7894H334.15L360.715 104.465H316.496Z" fill="#FFC107"/>
<path d="M24.7125 303.999H386.928C400.165 303.999 410.839 293.298 410.839 280.029V279.03H0.801941V280.029C0.801941 293.298 11.4763 303.999 24.7125 303.999Z" fill="#F5F5F5"/>
<path d="M175.012 285.736H243.897C247.456 285.736 250.444 282.883 250.444 279.173H168.608C168.465 282.883 171.454 285.736 175.012 285.736Z" fill="#BABABA"/>
<path opacity="0.2" d="M21.866 296.58H389.775C400.165 296.58 408.846 289.018 410.554 279.03H410.839V282.883C410.839 294.582 401.445 303.999 389.775 303.999H21.866C10.1954 303.999 0.801941 294.582 0.801941 282.883V279.03H1.08661C2.79453 289.018 11.4763 296.58 21.866 296.58Z" fill="#94C0FF"/>
<path d="M296.836 224.379L306.797 228.63C306.797 228.63 315.957 221.189 327.119 222.779C336.299 224.089 341.46 228.62 344.65 236.591L370.993 251.262L371.213 271.654L241.6 267.403L209.197 241.371L228.849 221.189L296.836 224.379Z" fill="#E3E3E3"/>
<path d="M209.062 210.958C209.882 213.098 210.762 215.258 211.702 217.439H211.722C211.982 217.419 212.242 217.409 212.502 217.399C212.792 217.389 213.082 217.389 213.372 217.389C213.742 217.389 214.112 217.409 214.482 217.429C214.602 217.439 214.722 217.449 214.842 217.459C215.083 217.479 215.333 217.499 215.563 217.529C215.713 217.549 215.853 217.569 215.993 217.589C216.203 217.619 216.423 217.649 216.633 217.679C216.783 217.709 216.933 217.739 217.083 217.769C217.283 217.809 217.483 217.849 217.683 217.889C217.843 217.919 217.993 217.969 218.143 217.999C218.333 218.049 218.523 218.089 218.713 218.149C218.873 218.189 219.023 218.239 219.173 218.289C219.353 218.349 219.543 218.399 219.723 218.459C219.873 218.509 220.033 218.569 220.183 218.619C220.363 218.679 220.533 218.749 220.713 218.819C220.863 218.879 221.023 218.939 221.173 219.009C221.343 219.079 221.513 219.149 221.683 219.229C221.833 219.299 221.983 219.369 222.133 219.439C222.293 219.519 222.463 219.599 222.623 219.679C222.773 219.759 222.913 219.829 223.063 219.909C223.223 219.999 223.383 220.089 223.533 220.179C223.673 220.259 223.813 220.349 223.963 220.429C224.123 220.529 224.273 220.619 224.423 220.719C224.563 220.809 224.693 220.899 224.833 220.989C224.983 221.089 225.133 221.199 225.283 221.299C225.413 221.389 225.544 221.489 225.674 221.589C225.824 221.699 225.964 221.819 226.114 221.929C226.234 222.029 226.364 222.129 226.484 222.229C226.634 222.349 226.774 222.479 226.914 222.599C227.034 222.699 227.144 222.799 227.254 222.909C227.404 223.039 227.544 223.179 227.684 223.319C227.784 223.419 227.894 223.519 227.994 223.629C228.144 223.779 228.284 223.929 228.424 224.089C228.494 224.169 228.574 224.239 228.644 224.319C228.664 224.339 228.684 224.359 228.704 224.379C228.814 224.499 228.914 224.619 229.014 224.739C229.124 224.869 229.234 224.999 229.344 225.129C229.444 225.249 229.534 225.369 229.634 225.499C229.744 225.639 229.844 225.769 229.944 225.909C230.034 226.029 230.124 226.159 230.214 226.289C230.314 226.429 230.414 226.569 230.514 226.719C230.604 226.849 230.684 226.979 230.764 227.109C230.854 227.259 230.954 227.409 231.044 227.56C231.124 227.69 231.194 227.82 231.274 227.96C231.364 228.11 231.444 228.27 231.534 228.42C231.574 228.49 231.614 228.57 231.654 228.64H306.801C306.801 228.64 306.861 225.359 304.751 222.369C304.661 222.279 304.571 222.179 304.501 222.099C304.441 222.039 304.381 221.979 304.321 221.909C304.141 221.729 303.961 221.559 303.771 221.389C303.751 221.369 303.721 221.339 303.701 221.319C303.481 221.129 303.261 220.939 303.041 220.759C302.991 220.719 302.951 220.689 302.901 220.649C302.721 220.509 302.541 220.379 302.361 220.249C302.281 220.189 302.191 220.139 302.111 220.079C301.961 219.979 301.811 219.879 301.651 219.779C301.551 219.719 301.451 219.659 301.351 219.599C301.211 219.509 301.061 219.429 300.921 219.349C300.811 219.289 300.701 219.229 300.601 219.179C300.461 219.109 300.321 219.029 300.171 218.959C300.061 218.909 299.941 218.849 299.831 218.799C299.691 218.739 299.551 218.669 299.401 218.609C299.281 218.559 299.161 218.509 299.041 218.469C298.901 218.409 298.751 218.359 298.61 218.309C298.49 218.269 298.36 218.219 298.24 218.179C298.09 218.129 297.95 218.089 297.8 218.049C297.68 218.009 297.55 217.979 297.42 217.939C297.27 217.899 297.12 217.869 296.97 217.829C296.8 217.799 296.65 217.769 296.5 217.729C296.38 217.709 296.25 217.679 296.13 217.659C296.01 217.639 295.89 217.619 295.76 217.599C295.59 217.569 295.42 217.559 295.25 217.539C295.14 217.529 295.03 217.509 294.92 217.499C294.7 217.479 294.48 217.469 294.26 217.459C294.2 217.459 294.13 217.449 294.07 217.449C293.79 217.439 293.5 217.439 293.22 217.449C292.91 217.459 292.6 217.469 292.29 217.499C290.7 217.629 289.1 218.019 287.549 218.689C287.049 218.909 286.569 219.149 286.099 219.409C286.599 217.479 286.489 215.388 285.639 213.418C285.519 213.148 285.389 212.888 285.249 212.628C285.209 212.548 285.159 212.478 285.109 212.398C285.009 212.228 284.899 212.058 284.789 211.888C284.729 211.808 284.679 211.718 284.619 211.638C284.509 211.478 284.389 211.328 284.269 211.188C284.209 211.118 284.149 211.038 284.089 210.968C283.939 210.798 283.779 210.628 283.609 210.468C283.579 210.438 283.549 210.398 283.509 210.368C283.309 210.178 283.109 209.998 282.889 209.828C282.819 209.778 282.759 209.728 282.689 209.678C282.539 209.558 282.379 209.448 282.219 209.348C282.139 209.288 282.049 209.238 281.969 209.188C281.809 209.088 281.659 208.998 281.489 208.918C281.409 208.878 281.329 208.828 281.239 208.788C281.029 208.688 280.819 208.588 280.599 208.498C280.559 208.488 280.529 208.468 280.489 208.448C280.239 208.348 279.979 208.258 279.729 208.188C279.649 208.168 279.569 208.148 279.489 208.128C279.299 208.078 279.119 208.028 278.929 207.998C278.839 207.978 278.739 207.958 278.649 207.948C278.459 207.918 278.279 207.888 278.089 207.868C277.999 207.858 277.919 207.848 277.829 207.838C277.578 207.818 277.318 207.808 277.058 207.808C277.038 207.808 277.018 207.808 277.008 207.808C276.728 207.808 276.458 207.828 276.178 207.858C276.098 207.868 276.008 207.878 275.928 207.888C275.728 207.918 275.538 207.938 275.338 207.978C275.238 207.998 275.148 208.018 275.048 208.038C274.858 208.078 274.658 208.128 274.468 208.188C274.378 208.218 274.298 208.238 274.208 208.268C273.938 208.358 273.658 208.458 273.388 208.568C273.358 208.578 273.338 208.588 273.308 208.608C273.108 208.698 272.918 208.788 272.738 208.888C272.678 208.918 272.608 208.958 272.548 208.988C272.398 209.068 272.258 209.148 272.118 209.238C272.058 209.278 271.998 209.318 271.938 209.358C271.788 209.458 271.648 209.558 271.498 209.668C271.458 209.698 271.418 209.728 271.368 209.758C271.188 209.898 271.018 210.038 270.858 210.188C270.808 210.228 270.768 210.268 270.728 210.318C270.608 210.438 270.478 210.558 270.368 210.678C270.318 210.728 270.268 210.788 270.218 210.838C270.108 210.958 269.998 211.088 269.898 211.208C269.858 211.258 269.818 211.308 269.778 211.358C269.638 211.538 269.508 211.718 269.378 211.908C269.368 211.928 269.358 211.948 269.338 211.968C269.228 212.138 269.118 212.308 269.018 212.488C268.988 212.548 268.958 212.598 268.928 212.658C268.848 212.808 268.768 212.958 268.698 213.108C268.668 213.168 268.638 213.218 268.618 213.278C268.528 213.478 268.438 213.678 268.368 213.888V213.898C268.288 214.108 268.218 214.328 268.158 214.548C268.138 214.598 268.128 214.658 268.118 214.708C268.068 214.878 268.028 215.048 267.998 215.218C267.978 215.328 267.948 215.438 267.928 215.558C263.677 212.178 257.757 211.188 252.426 213.488C251.376 213.938 250.416 214.498 249.526 215.138L247.716 214.888C247.476 214.058 247.186 213.238 246.836 212.418C246.706 212.118 246.566 211.818 246.426 211.528C246.386 211.438 246.336 211.348 246.285 211.258C246.185 211.058 246.075 210.858 245.975 210.658C245.915 210.558 245.865 210.458 245.805 210.358C245.695 210.168 245.585 209.988 245.475 209.798C245.415 209.698 245.355 209.608 245.305 209.518C245.175 209.318 245.055 209.128 244.925 208.938C244.875 208.868 244.825 208.798 244.775 208.718C244.595 208.458 244.405 208.198 244.215 207.948C244.195 207.928 244.185 207.908 244.165 207.888C243.985 207.658 243.805 207.438 243.615 207.208C243.555 207.128 243.485 207.058 243.425 206.988C243.305 206.848 243.175 206.708 243.055 206.568C242.745 206.227 242.425 205.897 242.085 205.577C242.025 205.517 241.955 205.457 241.895 205.407C241.595 205.127 241.285 204.857 240.965 204.587C240.895 204.537 240.835 204.477 240.765 204.427C240.405 204.137 240.045 203.867 239.675 203.607C239.585 203.547 239.505 203.487 239.415 203.427C239.045 203.177 238.675 202.937 238.295 202.707C238.275 202.697 238.255 202.677 238.225 202.667C237.825 202.437 237.415 202.217 237.005 202.007C236.915 201.957 236.815 201.917 236.725 201.867C236.315 201.667 235.895 201.477 235.474 201.307C235.414 201.287 235.354 201.257 235.294 201.237C234.904 201.087 234.514 200.947 234.114 200.807C234.034 200.777 233.944 200.747 233.864 200.727C233.424 200.587 232.984 200.467 232.544 200.357C232.454 200.337 232.364 200.317 232.274 200.297C231.854 200.197 231.434 200.117 231.004 200.047C230.954 200.037 230.914 200.027 230.864 200.017C230.404 199.947 229.944 199.897 229.474 199.847C229.374 199.837 229.274 199.827 229.174 199.827C228.704 199.797 228.234 199.767 227.764 199.767C227.734 199.767 227.694 199.767 227.664 199.767C227.214 199.767 226.764 199.787 226.314 199.807C226.214 199.817 226.124 199.817 226.024 199.827C225.554 199.867 225.093 199.917 224.623 199.977C224.543 199.987 224.453 200.007 224.373 200.017C223.943 200.087 223.513 200.167 223.083 200.257C223.013 200.277 222.943 200.287 222.873 200.297C222.403 200.407 221.943 200.537 221.483 200.677C221.383 200.707 221.283 200.737 221.183 200.777C220.713 200.927 220.243 201.097 219.773 201.287C215.563 193.806 212.307 142.093 210.236 128.472L199.116 137.454C199.426 139.854 201.001 189.986 209.062 210.958Z" fill="#E3E3E3"/>
<path d="M231.535 228.41C231.455 228.25 231.365 228.1 231.275 227.95C231.195 227.82 231.125 227.69 231.045 227.55C230.955 227.4 230.865 227.25 230.765 227.1C230.685 226.97 230.595 226.84 230.515 226.71C230.415 226.57 230.315 226.42 230.215 226.279C230.125 226.149 230.035 226.029 229.945 225.899C229.845 225.759 229.735 225.629 229.635 225.489C229.535 225.369 229.445 225.239 229.345 225.119C229.235 224.989 229.125 224.859 229.015 224.729C228.915 224.609 228.805 224.489 228.705 224.369C228.615 224.269 228.525 224.169 228.425 224.069C228.285 223.919 228.145 223.759 227.995 223.609C227.895 223.509 227.785 223.409 227.685 223.299C227.545 223.159 227.405 223.029 227.255 222.889C227.145 222.789 227.025 222.689 226.915 222.579C226.775 222.449 226.625 222.329 226.485 222.209C226.365 222.109 226.235 222.009 226.115 221.909C225.965 221.789 225.825 221.679 225.675 221.569C225.545 221.469 225.415 221.379 225.285 221.279C225.135 221.169 224.985 221.069 224.835 220.969C224.695 220.879 224.565 220.789 224.425 220.699C224.275 220.599 224.115 220.499 223.965 220.409C223.825 220.319 223.685 220.239 223.535 220.159C223.375 220.069 223.225 219.979 223.065 219.889C222.915 219.809 222.775 219.729 222.625 219.659C222.465 219.579 222.295 219.499 222.135 219.419C221.985 219.349 221.834 219.279 221.684 219.209C221.514 219.129 221.344 219.059 221.174 218.989C221.024 218.929 220.874 218.859 220.714 218.799C220.544 218.729 220.364 218.669 220.184 218.599C220.034 218.539 219.874 218.489 219.724 218.439C219.544 218.379 219.364 218.319 219.174 218.269C219.024 218.219 218.864 218.179 218.714 218.129C218.524 218.079 218.334 218.029 218.144 217.979C217.994 217.939 217.834 217.899 217.684 217.869C217.484 217.829 217.284 217.789 217.084 217.749C216.934 217.719 216.784 217.689 216.634 217.659C216.424 217.619 216.204 217.599 215.994 217.569C215.854 217.549 215.704 217.529 215.564 217.509C215.324 217.479 215.084 217.459 214.844 217.439C214.724 217.429 214.604 217.419 214.484 217.409C214.114 217.389 213.754 217.369 213.374 217.369C213.084 217.369 212.794 217.369 212.504 217.379C212.244 217.389 211.984 217.399 211.724 217.419H211.704C210.763 215.238 209.883 213.078 209.063 210.938C201.002 189.966 200.852 134.755 200.552 132.325L210.933 131.985L190.732 132.645C190.732 132.645 185.681 185.996 179.89 201.987C178.74 205.177 177.47 208.358 176.07 211.388C170.35 206.338 161.619 206.268 155.818 211.508C154.448 212.748 153.358 214.178 152.538 215.728C147.147 213.168 140.527 213.938 135.816 218.179C135.586 218.389 135.366 218.599 135.156 218.819C134.756 217.709 134.146 216.659 133.306 215.738C129.866 211.928 123.975 211.628 120.165 215.068C118.165 216.869 117.144 219.349 117.104 221.839C111.804 219.559 105.443 220.399 100.883 224.519C99.5528 225.719 98.4827 227.1 97.6826 228.6H231.645C231.605 228.56 231.575 228.48 231.535 228.41Z" fill="white"/>
<path d="M162.214 216.999C162.024 216.939 161.834 216.859 161.634 216.799C161.434 216.749 161.254 216.689 161.054 216.669L160.764 216.619L160.474 216.599C160.284 216.579 160.084 216.599 159.894 216.599C159.704 216.609 159.514 216.639 159.324 216.659C159.134 216.709 158.954 216.729 158.774 216.789C158.594 216.849 158.414 216.899 158.244 216.979C158.063 217.039 157.903 217.129 157.743 217.219C157.583 217.299 157.433 217.419 157.273 217.509C157.133 217.629 156.983 217.729 156.853 217.859C156.723 217.989 156.583 218.099 156.473 218.249C156.413 218.319 156.353 218.379 156.293 218.449L156.143 218.669C156.033 218.809 155.963 218.979 155.863 219.129L155.833 219.189C155.843 219.179 155.823 219.209 155.843 219.169V219.179L155.833 219.199L155.813 219.229L155.753 219.369C155.713 219.459 155.653 219.559 155.643 219.629C155.593 219.789 155.533 219.939 155.493 220.109C155.443 220.279 155.423 220.449 155.383 220.619L155.173 221.639L154.273 221.009C154.093 220.879 153.913 220.739 153.723 220.619L153.433 220.449L153.293 220.359L153.253 220.339C153.223 220.319 153.293 220.359 153.283 220.359H153.273L153.253 220.349L153.173 220.309L152.833 220.149L152.663 220.069L152.513 220.019C152.313 219.949 152.133 219.869 151.903 219.819L151.583 219.729C151.473 219.699 151.363 219.689 151.253 219.669C151.143 219.649 151.033 219.629 150.923 219.619L150.593 219.589C150.373 219.559 150.153 219.579 149.933 219.579C149.713 219.579 149.493 219.619 149.273 219.639C149.053 219.679 148.833 219.719 148.623 219.769C148.413 219.839 148.193 219.879 147.993 219.969C147.783 220.049 147.572 220.119 147.382 220.229L147.082 220.379C146.982 220.429 146.892 220.499 146.802 220.549C146.612 220.659 146.432 220.789 146.252 220.929C146.062 221.049 145.912 221.219 145.742 221.359C145.572 221.509 145.432 221.679 145.272 221.839C145.132 222.009 145.002 222.199 144.852 222.369L144.472 222.849L143.982 222.589C143.842 222.509 143.702 222.419 143.552 222.359C143.412 222.279 143.252 222.229 143.102 222.169C142.942 222.119 142.792 222.069 142.632 222.029C142.472 221.989 142.312 221.969 142.142 221.939C141.972 221.929 141.812 221.899 141.642 221.909C141.472 221.899 141.312 221.909 141.142 221.919C140.972 221.939 140.802 221.949 140.642 221.989C140.472 222.019 140.312 222.069 140.142 222.109C139.982 222.169 139.812 222.219 139.662 222.289C139.502 222.349 139.352 222.429 139.192 222.509C139.112 222.549 139.042 222.599 138.962 222.639L138.822 222.679L138.782 222.659C138.792 222.649 138.762 222.679 138.792 222.649L138.812 222.689L138.802 222.729L138.752 222.779L138.312 223.129C138.172 223.249 138.072 223.379 137.942 223.499C137.882 223.559 137.812 223.619 137.762 223.689L137.602 223.909C137.502 224.059 137.362 224.199 137.292 224.36L137.021 224.85C137.071 224.67 137.121 224.49 137.171 224.299C137.212 224.109 137.312 223.949 137.382 223.769L137.502 223.509C137.542 223.419 137.602 223.339 137.662 223.259C137.772 223.099 137.872 222.919 138.002 222.769L138.382 222.359L138.432 222.309L138.452 222.279L138.462 222.269L138.432 222.229L138.422 222.179L138.432 222.169L138.572 222.109C138.652 222.049 138.732 221.989 138.812 221.939C138.972 221.819 139.142 221.709 139.312 221.609C139.482 221.499 139.672 221.419 139.852 221.329C140.042 221.249 140.222 221.169 140.422 221.109C140.612 221.039 140.812 220.999 141.012 220.949C141.212 220.919 141.412 220.869 141.622 220.859C141.822 220.839 142.032 220.839 142.242 220.839C142.452 220.849 142.652 220.859 142.862 220.899C143.072 220.919 143.272 220.969 143.472 221.019C143.672 221.079 143.872 221.129 144.072 221.209C144.272 221.279 144.462 221.369 144.652 221.459L143.782 221.679C143.932 221.449 144.082 221.219 144.242 220.999C144.422 220.789 144.582 220.569 144.772 220.369C144.972 220.179 145.152 219.969 145.372 219.809C145.582 219.629 145.792 219.459 146.032 219.309C146.152 219.239 146.262 219.159 146.382 219.089L146.742 218.899C146.982 218.759 147.242 218.669 147.492 218.559C147.743 218.449 148.013 218.389 148.283 218.309C148.553 218.249 148.823 218.189 149.093 218.139C149.363 218.109 149.643 218.069 149.923 218.069C150.203 218.069 150.473 218.049 150.753 218.089L151.163 218.129C151.303 218.149 151.433 218.179 151.573 218.199C151.713 218.229 151.843 218.249 151.983 218.279L152.383 218.399C152.643 218.469 152.913 218.589 153.183 218.689L153.383 218.769L153.543 218.859L153.873 219.039L153.953 219.079L154.023 219.119L154.063 219.149L154.233 219.259L154.573 219.489C154.793 219.649 154.993 219.839 155.213 220.009L154.103 220.399C154.163 220.179 154.203 219.949 154.283 219.739C154.353 219.529 154.443 219.309 154.553 219.089C154.603 218.969 154.653 218.899 154.703 218.809L154.783 218.679L154.833 218.589L154.883 218.519C155.013 218.339 155.133 218.139 155.283 217.979L155.503 217.729C155.583 217.649 155.663 217.569 155.743 217.499C155.903 217.339 156.083 217.209 156.253 217.069C156.433 216.929 156.633 216.829 156.813 216.709C157.013 216.619 157.203 216.509 157.413 216.429C157.623 216.349 157.823 216.269 158.033 216.229C158.144 216.199 158.244 216.169 158.354 216.149L158.674 216.099C158.884 216.059 159.104 216.069 159.314 216.059C159.524 216.069 159.744 216.069 159.954 216.099C160.164 216.129 160.374 216.159 160.574 216.219L160.874 216.299L161.164 216.409C161.364 216.469 161.544 216.589 161.724 216.679C161.884 216.759 162.044 216.889 162.214 216.999Z" fill="#E3E3E3"/>
<path d="M211.366 226.2L211.136 225.73C211.046 225.58 210.956 225.44 210.866 225.29C210.766 225.15 210.656 225.01 210.556 224.88C210.446 224.75 210.325 224.63 210.215 224.5C210.095 224.38 209.965 224.27 209.845 224.16C209.715 224.05 209.575 223.96 209.445 223.86L209.025 223.6L208.585 223.38L208.125 223.21L207.655 223.08C207.495 223.05 207.335 223.02 207.175 223C207.015 222.99 206.855 222.97 206.695 222.96C206.535 222.96 206.375 222.96 206.215 222.97C206.055 222.99 205.895 223 205.745 223.02L205.275 223.11L204.825 223.25L204.385 223.38L204.175 222.93L203.955 222.46C203.875 222.31 203.785 222.16 203.705 222.009C203.515 221.719 203.325 221.439 203.105 221.179L203.025 221.079V221.059L203.035 221.039C203.045 221.049 203.005 221.029 203.035 221.069L203.005 221.049L202.955 220.999L202.765 220.799C202.635 220.669 202.505 220.519 202.385 220.429L202.015 220.109L201.595 219.819C201.465 219.719 201.305 219.639 201.165 219.559C201.015 219.469 200.875 219.389 200.715 219.329C200.555 219.259 200.405 219.189 200.255 219.129L199.774 218.969C199.614 218.919 199.444 218.889 199.284 218.849C199.124 218.799 198.954 218.779 198.784 218.759C198.454 218.699 198.114 218.699 197.774 218.679C197.434 218.699 197.094 218.699 196.764 218.759L196.514 218.789L196.264 218.849C196.104 218.889 195.934 218.919 195.774 218.979L195.294 219.139C195.134 219.199 194.984 219.279 194.834 219.339C194.674 219.399 194.534 219.489 194.384 219.569C194.244 219.659 194.084 219.729 193.954 219.829L193.534 220.119L193.504 220.139H193.494C193.474 220.149 193.514 220.119 193.504 220.129L193.494 220.139L193.444 220.189L193.334 220.279L193.124 220.459C193.014 220.579 192.894 220.679 192.774 220.799C192.664 220.929 192.534 221.039 192.434 221.179C192.324 221.309 192.214 221.439 192.124 221.589C192.024 221.729 191.934 221.869 191.844 222.019C191.664 222.31 191.504 222.62 191.364 222.94L190.964 223.82L190.434 223.08L190.394 223.03L190.414 222.99L190.444 222.96C190.484 223.01 190.454 222.97 190.464 222.98L190.454 222.97H190.404L190.304 222.88L190.124 222.68C190.064 222.61 190.004 222.56 189.954 222.51L189.784 222.35C189.684 222.239 189.533 222.15 189.413 222.039C189.293 221.929 189.143 221.859 189.013 221.759C188.883 221.669 188.733 221.599 188.583 221.519C188.443 221.439 188.283 221.389 188.133 221.319C187.983 221.259 187.823 221.219 187.663 221.169C187.503 221.129 187.343 221.099 187.173 221.059C187.013 221.029 186.843 221.019 186.673 220.999C186.503 220.989 186.333 220.989 186.163 220.979L185.653 221.019L185.143 221.099L184.643 221.229L184.153 221.409L183.673 221.639L183.213 221.909L183.613 221.549L184.053 221.229C184.203 221.139 184.373 221.049 184.523 220.959C184.683 220.879 184.853 220.809 185.023 220.739C185.193 220.679 185.373 220.619 185.553 220.569L186.103 220.459C186.293 220.439 186.473 220.419 186.663 220.399C186.853 220.399 187.043 220.389 187.223 220.399C187.413 220.419 187.603 220.429 187.783 220.459C187.973 220.499 188.163 220.529 188.343 220.579C188.523 220.639 188.713 220.679 188.893 220.749C189.073 220.829 189.253 220.889 189.423 220.979C189.594 221.069 189.774 221.149 189.934 221.259C190.094 221.369 190.254 221.469 190.414 221.599L190.644 221.799C190.724 221.869 190.804 221.929 190.854 221.999L191.044 222.19L191.134 222.28L191.154 222.3L191.164 222.31L191.194 222.34L191.204 222.35L191.244 222.4L190.314 222.54C190.444 222.16 190.594 221.789 190.784 221.439C190.874 221.259 190.974 221.089 191.084 220.919C191.184 220.749 191.304 220.579 191.424 220.419C191.534 220.249 191.674 220.109 191.804 219.949C191.934 219.789 192.094 219.649 192.234 219.489L192.424 219.279L192.514 219.169L192.564 219.119L192.574 219.109L192.624 219.099L192.664 219.089L193.154 218.719C193.314 218.589 193.494 218.499 193.664 218.389C193.834 218.279 194.014 218.179 194.194 218.099C194.374 218.009 194.564 217.919 194.744 217.839L195.314 217.629C195.504 217.559 195.704 217.519 195.904 217.469L196.204 217.399L196.504 217.359C196.904 217.289 197.314 217.269 197.724 217.259C198.134 217.279 198.534 217.289 198.944 217.359C199.144 217.389 199.344 217.419 199.544 217.479C199.744 217.529 199.944 217.569 200.135 217.639L200.705 217.849C200.895 217.929 201.075 218.019 201.255 218.109C201.445 218.189 201.615 218.299 201.785 218.399C201.955 218.509 202.135 218.599 202.295 218.729L202.775 219.099L203.235 219.529C203.405 219.679 203.505 219.819 203.625 219.959L203.805 220.169L203.855 220.219L203.875 220.249L203.895 220.279L203.905 220.289L203.915 220.309L204.005 220.429C204.245 220.749 204.455 221.099 204.645 221.449C204.735 221.629 204.825 221.809 204.905 221.989L205.115 222.55L204.455 222.23L205.015 222.099C205.205 222.069 205.395 222.049 205.585 222.029C205.775 222.019 205.965 222.019 206.155 222.019C206.345 222.029 206.535 222.05 206.725 222.07C206.915 222.1 207.095 222.14 207.285 222.17C207.465 222.22 207.645 222.27 207.825 222.33C208.005 222.4 208.175 222.47 208.345 222.54C208.515 222.62 208.675 222.71 208.835 222.8L209.295 223.11C209.435 223.23 209.585 223.34 209.725 223.46C209.855 223.59 209.985 223.72 210.115 223.85C210.235 223.99 210.345 224.13 210.456 224.28C210.556 224.43 210.656 224.58 210.756 224.73C210.836 224.89 210.926 225.05 211.006 225.21C211.066 225.38 211.136 225.54 211.196 225.71L211.366 226.2Z" fill="#E3E3E3"/>
<path d="M106.668 227.57L97.6876 228.64C97.6876 228.64 67.2947 210.328 36.0217 239.901L36.0117 271.774H371.304C371.304 271.774 363.243 249.352 336.15 249.352C309.058 249.352 306.938 257.853 306.938 257.853C306.938 257.853 296.847 230.23 269.754 242.451C269.754 242.451 259.133 219.079 231.54 228.42C231.54 228.41 117.299 221.189 106.668 227.57Z" fill="white"/>
<path d="M104.848 240.581C104.578 240.511 104.318 240.401 104.058 240.341C103.788 240.291 103.537 240.221 103.267 240.191L102.867 240.141L102.467 240.131C102.207 240.111 101.937 240.151 101.677 240.161C101.417 240.181 101.157 240.231 100.907 240.271C100.657 240.341 100.407 240.381 100.167 240.481C99.9271 240.571 99.6871 240.651 99.4571 240.761C99.2171 240.851 99.0071 240.991 98.787 241.111C98.567 241.231 98.377 241.391 98.167 241.531C97.987 241.701 97.7769 241.841 97.6169 242.031C97.4469 242.211 97.2669 242.381 97.1269 242.571C97.0569 242.671 96.9669 242.761 96.8968 242.861L96.6968 243.171C96.5568 243.371 96.4668 243.601 96.3468 243.811L96.3068 243.891V243.901C96.3168 243.891 96.2868 243.932 96.3168 243.871V243.881L96.3068 243.901L96.2868 243.951L96.2068 244.142C96.1568 244.262 96.0868 244.412 96.0668 244.512C96.0068 244.722 95.9368 244.932 95.8868 245.172C95.8267 245.402 95.8067 245.642 95.7667 245.872L95.5267 247.272L94.2766 246.462C94.0166 246.292 93.7666 246.112 93.5065 245.962L93.1065 245.742L92.9065 245.632L92.8565 245.602H92.8465C92.8065 245.582 92.8965 245.622 92.8865 245.622L92.8765 245.612L92.8465 245.602L92.7264 245.552L92.2564 245.352L92.0264 245.252L91.8164 245.192C91.5463 245.112 91.2863 245.002 90.9763 244.952L90.5362 244.852C90.3862 244.822 90.2362 244.812 90.0862 244.792C89.9362 244.772 89.7862 244.742 89.6362 244.742L89.1861 244.722C88.8861 244.692 88.5861 244.732 88.286 244.742C87.986 244.752 87.686 244.822 87.3859 244.862C87.0959 244.922 86.7959 244.992 86.5059 245.072C86.2258 245.182 85.9258 245.252 85.6558 245.382C85.3757 245.502 85.0957 245.612 84.8357 245.762L84.4357 245.982C84.3056 246.062 84.1856 246.152 84.0556 246.232C83.7956 246.392 83.5656 246.582 83.3256 246.772C83.0755 246.952 82.8755 247.182 82.6555 247.392C82.4355 247.602 82.2555 247.852 82.0454 248.072C81.8554 248.312 81.6954 248.572 81.5054 248.822L81.0153 249.502L80.3353 249.172C80.1353 249.072 79.9452 248.962 79.7452 248.882C79.5452 248.782 79.3352 248.722 79.1252 248.642C78.9051 248.582 78.6951 248.512 78.4751 248.482C78.2551 248.432 78.035 248.412 77.805 248.382C77.575 248.372 77.355 248.352 77.125 248.362C76.8949 248.362 76.6749 248.382 76.4449 248.402C76.2149 248.442 75.9849 248.462 75.7648 248.522C75.5348 248.562 75.3248 248.642 75.0948 248.712C74.8847 248.802 74.6547 248.872 74.4547 248.982C74.2347 249.072 74.0347 249.192 73.8246 249.312C73.7246 249.372 73.6246 249.442 73.5246 249.512L73.3346 249.572L73.2746 249.542C73.2846 249.532 73.2546 249.562 73.2946 249.522L73.3246 249.572L73.3046 249.622L73.2446 249.692L72.6745 250.192C72.4845 250.352 72.3545 250.542 72.1845 250.712C72.1045 250.802 72.0145 250.882 71.9445 250.982L71.7344 251.292C71.6044 251.502 71.4244 251.692 71.3344 251.922L70.9844 252.602C71.0344 252.352 71.0944 252.102 71.1544 251.852C71.2044 251.592 71.3244 251.362 71.4144 251.122L71.5644 250.762C71.6244 250.642 71.6944 250.532 71.7644 250.412C71.9045 250.192 72.0345 249.932 72.1945 249.732L72.6845 249.152L72.7445 249.082L72.7745 249.042L72.7845 249.032L72.7445 248.982L72.7245 248.912L72.7445 248.892L72.9346 248.802C73.0346 248.712 73.1546 248.632 73.2546 248.552C73.4646 248.382 73.6846 248.222 73.9147 248.072C74.1347 247.912 74.3847 247.792 74.6247 247.662C74.8747 247.552 75.1248 247.422 75.3848 247.332C75.6448 247.222 75.9148 247.162 76.1749 247.082C76.4449 247.022 76.7149 246.952 76.9949 246.932C77.275 246.892 77.555 246.882 77.835 246.872C78.1151 246.882 78.3951 246.882 78.6751 246.912C78.9551 246.932 79.2352 246.992 79.5152 247.042C79.7852 247.112 80.0652 247.172 80.3353 247.272C80.6053 247.352 80.8653 247.472 81.1353 247.582L79.9552 247.922C80.1452 247.612 80.3353 247.282 80.5453 246.972C80.7753 246.682 80.9753 246.362 81.2354 246.092C81.4954 245.822 81.7354 245.532 82.0154 245.292C82.2955 245.042 82.5755 244.792 82.8855 244.582C83.0355 244.472 83.1855 244.362 83.3456 244.262L83.8356 243.981C84.1556 243.781 84.4957 243.631 84.8357 243.471C85.1757 243.311 85.5358 243.211 85.8958 243.081C86.2558 242.981 86.6259 242.891 86.9859 242.811C87.3559 242.761 87.726 242.681 88.106 242.671C88.486 242.661 88.8561 242.621 89.2361 242.651L89.7962 242.681C89.9862 242.691 90.1662 242.731 90.3562 242.751C90.5462 242.781 90.7263 242.801 90.9163 242.841L91.4663 242.981C91.8264 243.061 92.1964 243.201 92.5664 243.341L92.8465 243.441L93.0765 243.551L93.5365 243.771L93.6465 243.831L93.7465 243.881L93.8066 243.922L94.0466 244.072L94.5266 244.362C94.8367 244.572 95.1267 244.812 95.4167 245.032L93.9266 245.632C93.9966 245.332 94.0366 245.022 94.1366 244.722C94.2166 244.432 94.3366 244.122 94.4666 243.821C94.5266 243.661 94.5966 243.561 94.6566 243.431L94.7566 243.251L94.8267 243.131L94.8867 243.031C95.0567 242.771 95.2067 242.511 95.4067 242.271L95.6967 241.911C95.7967 241.791 95.9068 241.691 96.0068 241.581C96.2168 241.351 96.4468 241.161 96.6768 240.971C96.9068 240.771 97.1769 240.631 97.4169 240.461C97.6869 240.321 97.9369 240.171 98.217 240.051C98.497 239.941 98.767 239.821 99.0571 239.741C99.1971 239.701 99.3371 239.651 99.4871 239.621L99.9271 239.541C100.217 239.481 100.517 239.481 100.797 239.451C101.087 239.451 101.377 239.441 101.667 239.471C101.957 239.501 102.237 239.531 102.517 239.601L102.937 239.701L103.337 239.841C103.607 239.921 103.868 240.061 104.118 240.171C104.378 240.281 104.608 240.431 104.848 240.581Z" fill="#E3E3E3"/>
<path d="M192.902 260.483L192.502 259.693C192.352 259.443 192.192 259.193 192.042 258.953C191.871 258.713 191.691 258.493 191.521 258.263C191.331 258.043 191.131 257.833 190.941 257.623C190.741 257.423 190.521 257.242 190.311 257.052C190.091 256.872 189.861 256.712 189.641 256.542L188.931 256.102L188.181 255.732L187.411 255.442L186.621 255.222C186.351 255.172 186.081 255.122 185.811 255.082C185.541 255.062 185.271 255.032 185.001 255.022C184.731 255.032 184.461 255.022 184.191 255.042C183.921 255.072 183.651 255.092 183.391 255.122L182.611 255.282L181.851 255.512L181.1 255.742L180.74 254.972L180.37 254.182C180.23 253.922 180.08 253.682 179.94 253.422C179.63 252.932 179.3 252.462 178.93 252.022L178.8 251.852L178.81 251.812L178.82 251.782C178.83 251.802 178.76 251.762 178.83 251.832L178.78 251.802L178.69 251.722L178.36 251.382C178.14 251.162 177.92 250.912 177.71 250.752L177.09 250.222L176.39 249.732C176.16 249.552 175.9 249.432 175.66 249.292C175.41 249.152 175.17 249.002 174.9 248.902C174.64 248.792 174.38 248.662 174.12 248.562L173.31 248.292C173.04 248.202 172.76 248.152 172.48 248.082C172.21 248.002 171.92 247.962 171.64 247.922C171.08 247.812 170.509 247.812 169.939 247.782C169.369 247.812 168.799 247.812 168.239 247.912L167.819 247.972L167.409 248.072C167.139 248.142 166.849 248.182 166.589 248.282L165.779 248.552C165.509 248.652 165.259 248.782 164.999 248.892C164.729 248.992 164.489 249.142 164.239 249.292C163.999 249.442 163.729 249.552 163.509 249.732L162.809 250.232L162.769 250.262L162.759 250.272H162.749C162.719 250.292 162.779 250.242 162.769 250.252L162.749 250.272L162.659 250.352L162.479 250.502L162.119 250.802C161.929 251.002 161.729 251.172 161.529 251.382C161.339 251.592 161.129 251.792 160.959 252.022C160.779 252.242 160.589 252.462 160.428 252.702C160.258 252.932 160.098 253.182 159.948 253.422C159.638 253.912 159.388 254.432 159.148 254.962L158.478 256.452L157.588 255.212L157.528 255.122L157.568 255.052L157.618 254.992C157.688 255.072 157.638 255.012 157.648 255.032L157.638 255.022L157.548 255.032L157.378 254.882L157.078 254.552C156.978 254.422 156.878 254.352 156.788 254.262L156.508 253.992C156.338 253.802 156.088 253.652 155.888 253.482C155.678 253.302 155.438 253.172 155.218 253.012C154.998 252.852 154.738 252.742 154.498 252.612C154.258 252.482 153.988 252.392 153.738 252.282C153.478 252.182 153.208 252.112 152.948 252.022C152.678 251.952 152.398 251.912 152.128 251.842C151.848 251.792 151.568 251.772 151.288 251.732C151.008 251.722 150.718 251.712 150.438 251.702L149.577 251.762L148.727 251.902L147.887 252.122L147.067 252.432L146.267 252.812L145.497 253.272L146.167 252.662L146.907 252.122C147.167 251.962 147.437 251.822 147.707 251.662C147.987 251.532 148.267 251.412 148.557 251.282C148.847 251.182 149.147 251.082 149.447 250.992L150.368 250.802C150.678 250.772 150.998 250.732 151.308 250.702C151.618 250.702 151.938 250.682 152.258 250.702C152.578 250.732 152.898 250.752 153.208 250.802C153.518 250.872 153.838 250.912 154.148 251.002C154.448 251.102 154.768 251.172 155.068 251.292C155.368 251.422 155.678 251.522 155.958 251.672C156.238 251.832 156.548 251.962 156.808 252.142C157.078 252.332 157.358 252.492 157.608 252.712L157.998 253.042C158.128 253.152 158.258 253.262 158.358 253.372L158.668 253.692L158.828 253.852L158.868 253.892L158.878 253.902L158.918 253.952L158.938 253.972L159.018 254.062L157.458 254.302C157.688 253.672 157.938 253.042 158.258 252.442C158.408 252.142 158.578 251.842 158.768 251.562C158.938 251.272 159.138 250.992 159.348 250.722C159.538 250.442 159.768 250.192 159.988 249.922C160.208 249.662 160.469 249.412 160.719 249.152L161.039 248.802L161.189 248.612L161.279 248.532L161.299 248.512L161.379 248.502L161.439 248.482L162.259 247.862C162.519 247.642 162.829 247.492 163.119 247.312C163.409 247.132 163.699 246.952 164.019 246.822C164.329 246.681 164.639 246.521 164.949 246.391L165.919 246.041C166.239 245.921 166.579 245.861 166.909 245.771L167.409 245.651L167.919 245.571C168.599 245.451 169.279 245.431 169.969 245.401C170.659 245.431 171.34 245.451 172.02 245.581C172.36 245.631 172.7 245.681 173.03 245.781C173.36 245.871 173.7 245.931 174.02 246.051L174.99 246.401C175.31 246.531 175.61 246.691 175.92 246.831C176.23 246.972 176.53 247.152 176.82 247.332C177.11 247.512 177.41 247.672 177.68 247.892L178.49 248.512L179.27 249.232C179.55 249.482 179.72 249.712 179.94 249.952L180.25 250.312L180.33 250.402L180.37 250.442L180.41 250.492L180.42 250.502L180.43 250.512L180.45 250.542L180.6 250.752C181.01 251.292 181.36 251.872 181.681 252.472C181.821 252.782 181.981 253.082 182.111 253.392L182.471 254.332L181.361 253.792L182.311 253.582C182.631 253.532 182.951 253.502 183.271 253.462C183.591 253.442 183.911 253.442 184.231 253.442C184.551 253.452 184.871 253.492 185.191 253.522C185.511 253.572 185.821 253.642 186.131 253.692C186.441 253.772 186.741 253.872 187.041 253.952C187.341 254.062 187.631 254.182 187.921 254.302C188.201 254.442 188.481 254.592 188.751 254.742L189.531 255.262C189.771 255.462 190.021 255.652 190.251 255.852C190.471 256.072 190.691 256.282 190.901 256.502C191.101 256.742 191.291 256.972 191.481 257.223C191.651 257.483 191.821 257.733 191.982 257.993C192.122 258.263 192.272 258.523 192.402 258.803C192.512 259.083 192.622 259.363 192.722 259.643L192.902 260.483Z" fill="#E3E3E3"/>
<path d="M281.273 260.663L280.873 259.873C280.723 259.623 280.563 259.373 280.413 259.133C280.243 258.893 280.063 258.673 279.893 258.443C279.703 258.223 279.503 258.013 279.313 257.803C279.113 257.603 278.893 257.423 278.683 257.233C278.463 257.053 278.233 256.893 278.013 256.723L277.303 256.283L276.553 255.913L275.783 255.623L274.993 255.402C274.723 255.352 274.453 255.302 274.183 255.262C273.913 255.242 273.643 255.212 273.373 255.202C273.103 255.212 272.833 255.202 272.563 255.222C272.293 255.262 272.023 255.272 271.763 255.302L270.982 255.462L270.222 255.693L269.472 255.923L269.112 255.152L268.742 254.362C268.602 254.102 268.452 253.862 268.312 253.602C268.002 253.112 267.672 252.642 267.302 252.202L267.172 252.032L267.182 251.992L267.192 251.962C267.202 251.982 267.132 251.942 267.202 252.012L267.152 251.982L267.062 251.902L266.732 251.562C266.512 251.342 266.292 251.092 266.082 250.932L265.462 250.402L264.762 249.912C264.532 249.732 264.272 249.612 264.032 249.472C263.782 249.332 263.542 249.182 263.272 249.082C263.012 248.972 262.752 248.842 262.492 248.742L261.682 248.472C261.412 248.382 261.132 248.332 260.851 248.262C260.581 248.182 260.291 248.142 260.011 248.102C259.451 247.992 258.881 247.992 258.311 247.962C257.741 247.992 257.171 247.992 256.611 248.092L256.191 248.152L255.781 248.252C255.511 248.322 255.221 248.362 254.961 248.462L254.151 248.732C253.881 248.832 253.631 248.962 253.371 249.072C253.101 249.172 252.861 249.322 252.611 249.472C252.371 249.622 252.101 249.732 251.881 249.912L251.181 250.402L251.141 250.432L251.131 250.442H251.121C251.091 250.462 251.151 250.412 251.141 250.422L251.121 250.442L251.031 250.522L250.851 250.672L250.491 250.972C250.3 251.172 250.1 251.342 249.9 251.552C249.71 251.762 249.5 251.962 249.33 252.192C249.15 252.412 248.96 252.632 248.81 252.872C248.64 253.102 248.48 253.352 248.33 253.592C248.02 254.082 247.77 254.602 247.53 255.132L246.86 256.623L245.97 255.382L245.91 255.292L245.95 255.222L246 255.162C246.07 255.242 246.02 255.182 246.03 255.202L246.02 255.192L245.93 255.202L245.76 255.052L245.46 254.722C245.36 254.592 245.26 254.522 245.17 254.432L244.89 254.162C244.71 253.972 244.47 253.822 244.27 253.652C244.06 253.472 243.82 253.342 243.6 253.182C243.38 253.022 243.12 252.912 242.88 252.782C242.64 252.652 242.37 252.562 242.12 252.452C241.86 252.352 241.59 252.282 241.33 252.192C241.06 252.122 240.78 252.082 240.51 252.012C240.23 251.962 239.949 251.942 239.669 251.902C239.389 251.882 239.099 251.882 238.819 251.872L237.959 251.932L237.109 252.072L236.269 252.292L235.449 252.602L234.649 252.982L233.879 253.442L234.549 252.832L235.289 252.292C235.549 252.132 235.819 251.992 236.089 251.832C236.369 251.702 236.649 251.582 236.939 251.452C237.229 251.352 237.529 251.252 237.829 251.162L238.749 250.972C239.059 250.942 239.379 250.902 239.689 250.872C239.999 250.872 240.32 250.852 240.64 250.872C240.96 250.902 241.28 250.922 241.59 250.972C241.9 251.042 242.22 251.082 242.53 251.172C242.83 251.272 243.15 251.342 243.45 251.462C243.75 251.592 244.06 251.692 244.34 251.842C244.62 252.002 244.93 252.132 245.19 252.312C245.46 252.502 245.74 252.662 245.99 252.882L246.38 253.212C246.51 253.322 246.64 253.432 246.74 253.542L247.05 253.862L247.21 254.022L247.25 254.062L247.26 254.072L247.3 254.122L247.32 254.142L247.4 254.232L245.84 254.472C246.07 253.842 246.32 253.212 246.64 252.612C246.79 252.312 246.96 252.012 247.15 251.732C247.32 251.442 247.52 251.162 247.73 250.892C247.92 250.612 248.15 250.362 248.37 250.092C248.59 249.832 248.85 249.582 249.1 249.322L249.42 248.972L249.57 248.782L249.66 248.702L249.68 248.682L249.76 248.672L249.82 248.652L250.641 248.042C250.901 247.822 251.211 247.672 251.501 247.482C251.791 247.302 252.081 247.122 252.401 246.992C252.711 246.852 253.021 246.692 253.331 246.562L254.301 246.212C254.621 246.092 254.961 246.032 255.291 245.942L255.791 245.822L256.301 245.742C256.981 245.622 257.661 245.602 258.351 245.572C259.031 245.602 259.721 245.622 260.401 245.752C260.741 245.802 261.082 245.852 261.412 245.952C261.742 246.042 262.082 246.102 262.402 246.222L263.372 246.572C263.692 246.702 263.992 246.862 264.302 247.002C264.612 247.142 264.912 247.322 265.202 247.502C265.492 247.682 265.792 247.842 266.062 248.062L266.872 248.682L267.652 249.402C267.932 249.652 268.102 249.882 268.322 250.122L268.632 250.482L268.712 250.572L268.752 250.612L268.792 250.662L268.802 250.672L268.812 250.682L268.832 250.712L268.982 250.922C269.392 251.462 269.742 252.042 270.062 252.642C270.202 252.952 270.362 253.252 270.492 253.562L270.852 254.502L269.742 253.962L270.692 253.752C271.012 253.702 271.332 253.672 271.653 253.632C271.973 253.612 272.293 253.612 272.613 253.612C272.933 253.622 273.253 253.662 273.573 253.692C273.893 253.742 274.203 253.812 274.513 253.862C274.823 253.942 275.123 254.032 275.423 254.122C275.723 254.232 276.013 254.352 276.303 254.472C276.583 254.612 276.863 254.762 277.133 254.912L277.913 255.432C278.153 255.632 278.403 255.823 278.633 256.023C278.853 256.243 279.073 256.453 279.283 256.673C279.483 256.913 279.673 257.143 279.863 257.393C280.033 257.653 280.203 257.903 280.363 258.153C280.503 258.423 280.653 258.683 280.783 258.963C280.893 259.243 281.003 259.523 281.103 259.803L281.273 260.663Z" fill="#E3E3E3"/>
<path d="M219.548 149.756C219.548 166.562 200.912 189.191 200.912 189.191C200.912 189.191 182.276 166.562 182.276 149.756C182.276 132.95 190.615 128.338 200.912 128.338C211.2 128.338 219.548 132.962 219.548 149.756Z" fill="#FF9800"/>
<path d="M213.464 145.036C213.464 155.749 200.913 170.174 200.913 170.174C200.913 170.174 188.362 155.749 188.362 145.036C188.362 134.322 193.979 131.38 200.913 131.38C207.838 131.391 213.464 134.322 213.464 145.036Z" fill="#FFC107"/>
<path d="M208.139 140.75C208.139 148.096 200.917 158.004 200.917 158.004C200.917 158.004 193.686 148.109 193.686 140.75C193.686 133.392 196.92 131.38 200.917 131.38C204.913 131.38 208.139 133.404 208.139 140.75Z" fill="#FFEB3B"/>
<path d="M185.698 98.323C185.698 98.323 160.166 111.724 160.166 140.768C160.166 140.768 161.758 143.961 164.311 140.128C166.863 136.295 169.095 125.766 185.378 125.766L185.698 98.323Z" fill="#CB1B38"/>
<path d="M215.821 98.323C215.821 98.323 241.352 111.724 241.352 140.768C241.352 140.768 239.751 143.961 237.199 140.128C234.647 136.295 232.415 125.766 216.132 125.766L215.821 98.323Z" fill="#CB1B38"/>
<path fill-rule="evenodd" clip-rule="evenodd" d="M185.484 128.71C177.632 116.34 172.42 94.7128 172.42 70.1065C172.42 58.2169 174.421 47.0207 177.417 37.2299H224.102C227.091 47.0207 229.103 58.2169 229.103 70.1065C229.103 94.7128 223.898 116.34 216.036 128.71H185.484Z" fill="white"/>
<path d="M185.697 128.754C185.306 128.754 184.986 129.074 184.986 129.465V132.8C184.986 133.192 185.306 133.512 185.697 133.512H200.762V128.745H185.697V128.754Z" fill="#34414D"/>
<path d="M215.807 128.754H200.76V133.521H215.807C216.198 133.521 216.527 133.201 216.527 132.81V129.475C216.518 129.075 216.198 128.754 215.807 128.754Z" fill="#34414D"/>
<path fill-rule="evenodd" clip-rule="evenodd" d="M200.698 75.7222C193.506 75.7222 187.685 69.8935 187.685 62.7111C187.685 55.529 193.506 49.7002 200.698 49.7002C207.883 49.7002 213.707 55.529 213.707 62.7111C213.707 69.901 207.877 75.7222 200.698 75.7222ZM200.698 53.7981C195.769 53.7981 191.783 57.785 191.783 62.7111C191.783 67.6301 195.769 71.6244 200.698 71.6244C205.614 71.6244 209.609 67.6375 209.609 62.7111C209.609 57.785 205.614 53.7981 200.698 53.7981Z" fill="#34414D"/>
<path d="M200.764 73.521C194.839 73.521 190.046 68.7278 190.046 62.8054C190.046 56.8827 194.839 52.0895 200.764 52.0895C206.674 52.0895 211.477 56.8827 211.477 62.8054C211.477 68.719 206.674 73.521 200.764 73.521Z" fill="#00B9F2"/>
<path d="M177.421 37.2302C184.092 15.3984 195.67 0.547485 200.764 0.547485C205.864 0.547485 217.432 15.3984 224.11 37.2302H177.421Z" fill="#CB1B38"/>
<path d="M201.739 106.274C201.659 106.247 201.578 106.238 201.49 106.238H201.472H200.751V142.058H201.552H201.57C202.014 142.058 202.388 141.694 202.388 141.249V140.164L202.414 138.59L204.673 109.786C204.691 106.852 202.237 106.398 201.739 106.274Z" fill="#CB1B38"/>
<path d="M199.955 106.229H199.937C199.848 106.229 199.768 106.247 199.688 106.265C199.546 106.3 199.386 106.363 199.226 106.452C198.336 106.745 196.825 107.519 196.825 109.804L199.083 138.634L199.11 140.093V141.178C199.11 141.516 199.324 141.809 199.617 141.934C199.733 141.996 199.866 142.032 200.008 142.032H200.026H200.746V106.211H199.955V106.229Z" fill="#CB1B38"/>
</svg>
